<?xml version="1.0" encoding="utf-8"?>
<!DOCTYPE svg PUBLIC "-//W3C//DTD SVG 1.1//EN" "http://www.w3.org/Graphics/SVG/1.1/DTD/svg11.dtd">
<svg version="1.1" xmlns="http://www.w3.org/2000/svg" xmlns:xlink="http://www.w3.org/1999/xlink" width="64" height="64" viewBox="0 0 64 64">
  <symbol id="alarm" viewBox="0 0 64 64">
    <title>
      Alarm
    </title>
    <desc>
      Alarm symbol
    </desc>
    <g fill="currentColor">
      <rect x="7" y="27" width="8" height="2"/>
      <rect x="49" y="27" width="8" height="2"/>
      <rect x="31" y="3" width="2" height="8"/>
      <path d="M47.2,20.4l6.9-4l-1-1.7l-6.9,4L47.2,20.4z"/>
      <path d="M41.4,13.8l4-6.9l-1.7-1l-4,6.9L41.4,13.8z"/>
      <path d="M24.4,12.8l-4-6.9l-1.7,1l4,6.9L24.4,12.8z"/>
      <path d="M17.8,18.6l-6.9-4l-1,1.7l6.9,4L17.8,18.6z"/>
      <path d="M13,52v-5c0-2.2,1.8-4,4-4h30c2.2,0,4,1.8,4,4v5H13z"/>
      <path d="M32,14c-7.7,0-14,6.3-14,14v13h17V28c0-1.7,1.3-3,3-3s3,1.3,3,3v13h5V28C46,20.3,39.7,14,32,14z"/>
    </g>
  </symbol>
  <symbol id="alert" viewBox="0 0 64 64">
    <title>
      Alert
    </title>
    <desc>
      alert symbol
    </desc>
    <g fill="currentColor">
      <path d="M50,40c-2.2,0-4-1.8-4-4v-9c0-7.1-5.2-12.9-12-13.8c0,0,0-2.2-2-2.2s-2,2.2-2,2.2c-6.8,1-12,6.8-12,13.8v9
		c0,2.2-1.8,4-4,4h-1v5h38v-5H50z"/>
      <path d="M32,52c3,0,5-2,5-5H27C27,50,29,52,32,52z"/>
    </g>
  </symbol>
  <symbol id="appliances" viewBox="0 0 64 64">
    <title>
      Appliances
    </title>
    <desc>
      appliances symbol
    </desc>
    <g fill="currentColor">
      <path d="M44,19v-8c0-1.1-0.9-2-2-2h-2c-1.1,0-2,0.9-2,2v8H26v-8c0-1.1-0.9-2-2-2h-2c-1.1,0-2,0.9-2,2v8h-6v6h36v-6H44z"/>
      <path d="M16,27v6c0,6.5,3.2,10.9,9,13v3h4v6h6v-6h4v-3c5.8-2.1,9-6.5,9-13v-6H16z"/>
    </g>
  </symbol>
  <symbol id="camera" viewBox="0 0 64 64">
    <title>
      Camera
    </title>
    <desc>
      Camera symbol
    </desc>
    <g fill="currentColor">
      <polygon points="5,39 17,36 25,44 22,57"/>
      <path d="M52,50h3V33h-3v7h-6l-4-4l12-12L38,7L14,30l17,17l9-9l5,5h7V50z M36,35c-1.7,0-3-1.3-3-3c0-1.7,1.3-3,3-3
		s3,1.3,3,3C39,33.7,37.7,35,36,35z"/>
    </g>
  </symbol>
  <symbol id="bulb-eco" viewBox="0 0 64 64">
    <title>
      Bulb eco
    </title>
    <desc>
      Bulb eco symbol
    </desc>
    <g fill="currentColor">
      <path d="M39,49H25v4h4c0.6,1.2,1.6,2,3,2c1.4,0,2.4-0.8,3-2h4V49z"/>
      <path d="M19.1,17.8c0.3,0,0.7-0.1,1-0.2L34,13.2c1.4-0.5,2.1-2.1,1.6-3.4c-0.5-1.4-2.1-2-3.5-1.5l-13.8,4.4
			c-1.4,0.5-2.1,2.1-1.6,3.4C17,17.1,18.1,17.8,19.1,17.8z"/>
      <path d="M19.1,25.7c0.3,0,0.7-0.1,1-0.2l25.6-8.8c1.4-0.5,2.1-2.1,1.6-3.4c-0.5-1.4-2.1-2-3.5-1.5l-25.6,8.8
			c-1.4,0.5-2.1,2.1-1.6,3.4C17,25.1,18.1,25.7,19.1,25.7z"/>
      <path d="M44.7,28.3c-0.2,0-1.3,0-3.4,0.5c-3.8,0.9-6.5,4.3-6.6,8.1h-5.7c0-2.3-1-4.4-2.6-5.9l19.2-6.4
			c1.4-0.5,2.1-2.1,1.6-3.4c-0.5-1.4-2.1-2-3.5-1.5l-25.6,8.8c0,0,0,0,0,0c-0.1,0-0.1,0.1-0.2,0.1c-1.2,0.6-1.8,2-1.3,3.3
			c0.4,1,1.4,1.7,2.5,1.7c0,0,0,0,0,0c0,0,0.7,0,2.1,0.4c1.1,0.3,2.4,1.3,2.4,3H21v8l2,2h18l2-2v-8h-2.8c0.1-1.7,1.3-2.7,2.5-3
			c1.3-0.3,2-0.4,2.1-0.4c1.5,0,2.7-1.2,2.7-2.6C47.4,29.5,46.2,28.3,44.7,28.3z"/>
    </g>
  </symbol>
  <symbol id="dashboard" viewBox="0 0 64 64">
    <title>
      Dashboard
    </title>
    <desc>
      Dashboard symbol
    </desc>
    <g fill="currentColor">
      <rect x="26" y="36" width="29" height="16"/>
      <rect x="9" y="22" width="14" height="30"/>
      <rect x="26" y="22" width="13" height="11"/>
      <rect x="42" y="22" width="13" height="11"/>
      <path d="M9,12v7h46v-7H9z M41.5,17c-0.83,0-1.5-0.67-1.5-1.5s0.67-1.5,1.5-1.5s1.5,0.67,1.5,1.5S42.33,17,41.5,17z
		 M46.5,17c-0.83,0-1.5-0.67-1.5-1.5s0.67-1.5,1.5-1.5s1.5,0.67,1.5,1.5S47.33,17,46.5,17z M51.5,17c-0.83,0-1.5-0.67-1.5-1.5s0.67-1.5,1.5-1.5s1.5,0.67,1.5,1.5S52.33,17,51.5,17z"/>
    </g>
  </symbol>
  <symbol id="garage" viewBox="0 0 64 64">
    <title>
      Garage
    </title>
    <desc>
      Garage symbol
    </desc>
    <g fill="currentColor">
      <polygon points="10,22 32,15 54,22 54,26 32,19 10,26"/>
      <polygon points="15,26.4 15,47 21,47 21,31 43,31 43,47 49,47 49,26.4 32,21"/>
      <rect x="23" y="38" width="18" height="3"/>
      <rect x="23" y="33" width="18" height="3"/>
      <rect x="23" y="43" width="18" height="3"/>
    </g>
  </symbol>
  <symbol id="fan" viewBox="0 0 64 64">
    <title>
      Fan
    </title>
    <desc>
      Fan symbol
    </desc>
    <g fill="currentColor">
      <path d="M32,10c-12.15,0-22,9.85-22,22c0,12.15,9.85,22,22,22c12.15,0,22-9.85,22-22C54,19.85,44.15,10,32,10z M32,52
		c-11.05,0-20-8.95-20-20c0-11.05,8.95-20,20-20c11.05,0,20,8.95,20,20C52,43.05,43.05,52,32,52z"/>
      <path d="M50.01,30.22c-0.17-1.66-1.52-2.02-2.82-0.98c-2.63,2.09-5.31,3.43-8.26,3.74C38.97,32.66,39,32.33,39,32
		c0-1.08-0.25-2.11-0.7-3.03c3.19-2.31,5.35-5.51,4.76-9.05c-1.01-6.04-9.65-6.26-12.84-5.94c-1.66,0.17-2.02,1.52-0.98,2.82
		c2.09,2.63,3.43,5.31,3.74,8.26C32.66,25.03,32.33,25,32,25c-1.09,0-2.11,0.25-3.03,0.69c-2.31-3.19-5.51-5.35-9.05-4.76
		c-6.04,1.01-6.26,9.65-5.94,12.84c0.17,1.66,1.52,2.02,2.82,0.98c2.63-2.09,5.31-3.43,8.26-3.75C25.03,31.34,25,31.67,25,32
		c0,1.08,0.25,2.11,0.69,3.03c-3.19,2.31-5.35,5.51-4.76,9.05c1.01,6.04,9.65,6.25,12.84,5.94c1.66-0.17,2.02-1.52,0.98-2.82
		c-2.09-2.63-3.43-5.31-3.75-8.26C31.34,38.97,31.67,39,32,39c1.08,0,2.11-0.25,3.03-0.7c2.31,3.19,5.51,5.35,9.05,4.76
		C50.11,42.06,50.33,33.42,50.01,30.22z M27,32c0-2.76,2.24-5,5-5c2.76,0,5,2.24,5,5c0,2.76-2.24,5-5,5C29.24,37,27,34.76,27,32z"/>
      <circle cx="32" cy="32" r="3"/>
    </g>
  </symbol>
  <symbol id="fire" viewBox="0 0 64 64">
    <title>
      Fire
    </title>
    <desc>
      Fire symbol
    </desc>
    <g fill="currentColor">
      <path d="M52,32c-1.58-3.95-4.58-5.83-2-14c-2.56-0.45-7.22,1.14-10,5c-4.46-4.78-7-11-6-18c-6,4-12,11-10,24c-3-6-7.57-6.92-12-7
		c2.36,3.83,3.76,8.94,1,12c-1.81,2-8.23,18,15.15,18c-4.49-1.99-7.05-6.81-3.15-13c0.57,2.13,2.67,3.62,4,3
		c3.69-1.71,3.56-8.19,3-12c4,3,5,7,3.9,10.36C39,39,39.18,38.19,40,35c4.86,6.48,2.5,14.27-2.83,17C57,52,54,37,52,32z"/>
    </g>
  </symbol>
  <symbol id="home" viewBox="0 0 64 64">
    <title>
      Home
    </title>
    <desc>
      Home symbol
    </desc>
    <g fill="currentColor">
      <polygon points="10,29 32,10 54,29"/>
      <polygon points="15,31 15,51 28,51 28,42 36,42 36,51 49,51 49,31"/>
    </g>
  </symbol>
  <symbol id="home-fridge" viewBox="0 0 64 64">
    <title>
      Home fridge
    </title>
    <desc>
      Home fridge symbol
    </desc>
    <g fill="currentColor">
      <rect x="19" y="52" width="26" height="2"/>
      <path d="M19,10v3h26v-3H19z M23,12h-2v-1h2V12z M43,12h-5v-1h5V12z"/>
      <path d="M19,14v22h26V14H19z M23,34h-2v-9h2V34z"/>
      <path d="M19,37v14h26V37H19z M23,45h-2v-6h2V45z"/>
    </g>
  </symbol>
  <symbol id="info" viewBox="0 0 64 64">
    <title>
      Info
    </title>
    <desc>
      Info symbol
    </desc>
    <g fill="currentColor">
      <path d="M32,45c-2,4,3,2,5,0c2-2,5,0,2,3c-10,10-22,6-19,0.1L28,29c2.5-4.7-2-3-5,0c-2,2-5,0-2-3c12-12,21-4,18.8,0.9L32,45z"/>
      <circle cx="39" cy="13" r="5"/>
    </g>
  </symbol>
  <symbol id="logout" viewBox="0 0 64 64">
    <title>
      Logout
    </title>
    <desc>
      Logout symbol
    </desc>
    <g fill="currentColor">
      <path d="M39,14.28v7.77c3.6,2.31,6,6.34,6,10.94c0,7.18-5.82,13-13,13s-13-5.82-13-13c0-4.6,2.4-8.63,6-10.94v-7.77C17.41,17.12,12,24.42,12,33c0,11.05,8.95,20,20,20s20-8.95,20-20C52,24.42,46.59,17.12,39,14.28z"/>
      <rect x="28" y="11" width="8" height="18"/>
    </g>
  </symbol>
  <symbol id="message" viewBox="0 0 64 64">
    <title>
      Message
    </title>
    <desc>
      Message symbol
    </desc>
    <g fill="currentColor">
      <polygon points="12,47 52,47 52,24 32,35 12,24"/>
      <polygon points="12,21 32,32 52,21 52,17 12,17"/>
    </g>
  </symbol>
  <symbol id="menu" viewBox="0 0 64 64">
    <title>
      Menu
    </title>
    <desc>
      Menu symbol
    </desc>
    <g fill="currentColor">
      <rect x="10" y="16" width="44" height="6"/>
      <rect x="10" y="30" width="44" height="6"/>
      <rect x="10" y="44" width="44" height="6"/>
    </g>
  </symbol>
  <symbol id="menu-arrow" viewBox="0 0 64 64">
    <title>
      Menu Arrow
    </title>
    <desc>
      Menu Arrow symbol
    </desc>
    <g fill="currentColor">
      <rect x="25" y="16" width="14" height="6"/>
      <rect x="15" y="30" width="34" height="6"/>
      <rect x="5" y="44" width="54" height="6"/>
    </g>
  </symbol>
  <symbol id="settings" viewBox="0 0 64 64">
    <title>
      Settings
    </title>
    <desc>
      Settings symbol
    </desc>
    <g fill="currentColor">
      <path d="M53,35v-6h-4.8c-0.4-2.3-1.3-4.5-2.6-6.3l3.4-3.4L44.7,15l-3.4,3.4c-1.9-1.3-4-2.2-6.3-2.6V11h-6v4.8
		c-2.3,0.4-4.5,1.3-6.4,2.6L19.3,15L15,19.3l3.4,3.4c-1.3,1.9-2.2,4-2.6,6.3H11v6h4.8c0.4,2.3,1.3,4.5,2.6,6.3L15,44.7l4.2,4.2
		l3.4-3.4c1.9,1.3,4,2.2,6.3,2.6V53h6v-4.8c2.3-0.4,4.5-1.3,6.3-2.6l3.4,3.4l4.2-4.2l-3.4-3.4c1.3-1.9,2.2-4,2.6-6.3H53z M32,40.4c-4.6,0-8.4-3.8-8.4-8.4c0-4.6,3.8-8.4,8.4-8.4c4.6,0,8.4,3.8,8.4,8.4C40.4,36.6,36.6,40.4,32,40.4z"/>
    </g>
  </symbol>
  <symbol id="tv-lcd" viewBox="0 0 64 64">
    <title>
      LCD TV
    </title>
    <desc>
      LCD TV symbol
    </desc>
    <g fill="currentColor">
      <rect x="15" y="19" width="34" height="20"/>
      <path d="M53,43V15H11v28h15l1,3h-7l-1,2h26l-1-2h-7l1-3H53z M13,41V17h38v24H13z"/>
    </g>
  </symbol>
  <symbol id="thermometer" viewBox="0 0 64 64">
    <title>
      Thermometer
    </title>
    <desc>
      Thermometer symbol
    </desc>
    <g fill="currentColor">
      <path d="M41,30.84V18c0-5.52-4.48-10-10-10c-5.52,0-10,4.48-10,10v12.84c-3.06,2.75-5,6.72-5,11.16c0,8.28,6.72,15,15,15
		c8.28,0,15-6.72,15-15C46,37.56,44.06,33.59,41,30.84z M31,53c-6.08,0-11-4.93-11-11c0-3.86,1.99-7.25,5-9.21V18c0-3.31,2.69-6,6-6
		s6,2.69,6,6v14.79c3.01,1.96,5,5.35,5,9.21C42,48.07,37.07,53,31,53z"/>
      <path d="M33.5,35.47V23h-5v12.47C25.87,36.48,24,39.02,24,42c0,3.87,3.13,7,7,7c3.87,0,7-3.13,7-7C38,39.02,36.13,36.48,33.5,35.47z"/>
      <rect x="44" y="15" width="8" height="2"/>
      <rect x="44" y="21" width="8" height="2"/>
      <rect x="44" y="27" width="8" height="2"/>
    </g>
  </symbol>
  <symbol id="thermometer-tiny" viewBox="0 0 64 64">
    <title>
      Thermometer
    </title>
    <desc>
      Thermometer symbol
    </desc>
    <g fill="currentColor">
      <rect x="44" y="14" width="8" height="2"/>
      <rect x="44" y="20" width="8" height="2"/>
      <rect x="45" y="26" width="7" height="2"/>
      <path d="M39.5,29.89V18.5c0-4.69-3.81-8.5-8.5-8.5c-4.69,0-8.5,3.81-8.5,8.5v11.39C19.16,32.45,17,36.47,17,41
		c0,7.73,6.27,14,14,14c7.73,0,14-6.27,14-14C45,36.47,42.84,32.45,39.5,29.89z M31,52.5c-6.35,0-11.5-5.15-11.5-11.5
		c0-4.15,2.21-7.77,5.5-9.8V18.5c0-3.31,2.69-6,6-6c3.31,0,6,2.69,6,6v12.7c3.29,2.02,5.5,5.65,5.5,9.8
		C42.5,47.35,37.35,52.5,31,52.5z"/>
      <path d="M33,34.29V22h-4v12.29c-2.89,0.86-5,3.54-5,6.71c0,3.87,3.13,7,7,7s7-3.13,7-7C38,37.83,35.89,35.15,33,34.29z"/>
    </g>
  </symbol>
  <symbol id="user" viewBox="0 0 64 64">
    <title>
      User
    </title>
    <desc>
      User symbol
    </desc>
    <g fill="currentColor">
      <circle cx="32" cy="22" r="11"/>
      <path d="M39,33.5c-2,1-4,2-7,2c-3,0-5-1-7-2C17,36.5,12,44,12,52h40C52,44,47,36.5,39,33.5z"/>
    </g>
  </symbol>
  <symbol id="wash-machine" viewBox="0 0 64 64">
    <title>
      Wash machine
    </title>
    <desc>
      Wash machine symbol
    </desc>
    <g fill="currentColor">
      <path d="M16,13v8h32v-8H16z M27,19h-9v-4h9V19z M34,19c-1.1,0-2-0.9-2-2s0.9-2,2-2s2,0.9,2,2S35.1,19,34,19z M39,19
		c-1.1,0-2-0.9-2-2s0.9-2,2-2s2,0.9,2,2S40.1,19,39,19z M44,19c-1.1,0-2-0.9-2-2s0.9-2,2-2s2,0.9,2,2S45.1,19,44,19z"/>
      <rect x="38" y="48" width="5" height="3"/>
      <path d="M16,22v29h21v-4h7v4h4V22H16z M32,46c-6.07,0-11-4.93-11-11c0-6.08,4.93-11,11-11c6.08,0,11,4.93,11,11
		C43,41.07,38.08,46,32,46z"/>
      <path d="M32,25c-5.52,0-10,4.48-10,10c0,5.52,4.48,10,10,10s10-4.48,10-10C42,29.48,37.52,25,32,25z M25,35
		c0-3.87,3.13-7,7-7c2.55,0,4.78,1.37,6,3.41v5.02c-1.96-1.47-5.01-2.19-7.57,0.43c-1.92,1.92-4.28,0.72-5.12,0.2
		C25.11,36.41,25,35.72,25,35z"/>
    </g>
  </symbol>
  <symbol id="video-doorbell" viewBox="0 0 64 64">
    <title>
      Video doorbell
    </title>
    <desc>
      video doorbell symbol
    </desc>
    <g fill="currentColor">
      <circle cx="32" cy="22.25" r="3.25"/>
      <path d="M16,13v38h32V13H16z M23,47h-3v-1h3V47z M23,44h-3v-1h3V44z M23,41h-3v-1h3V41z M23,38h-3v-1h3V38z M28,47h-3v-1h3V47z M28,44h-3v-1h3V44z M28,41h-3v-1h3V41z M28,38h-3v-1h3V38z M33,47h-3v-1h3V47z M33,44h-3v-1h3V44z M33,41h-3v-1h3V41zM33,38h-3v-1h3V38z M40,45c-1.66,0-3-1.34-3-3c0-1.66,1.34-3,3-3c1.66,0,3,1.34,3,3C43,43.66,41.66,45,40,45z M44,32h-5.5c0-4.33-3.25-5.96-4.33-5.96c-1.08,1.08-3.25,1.08-4.33,0c-1.08,0-4.33,1.63-4.33,5.96H20V17h24V32z"/>
    </g>
  </symbol>
  <symbol id="glow" viewBox="0 0 64 64">
    <g class="glow">
      <circle cx="32" cy="32" r="32"/>
    </g>
  </symbol>
  <symbol id="icon-dot" viewBox="0 0 64 64">
    <g class="icon-dot" fill="currentColor">
      <circle cx="56" cy="8" r="6"/>
    </g>
  </symbol>
  <symbol id="subicon-unlocked" viewBox="0 0 64 64">
    <g class="subicon-unlocked" fill="currentColor">
      <path d="M55,46v-3c0-3.31-2.69-6-6-6s-6,2.69-6,6h3c0-1.66,1.34-3,3-3s3,1.34,3,3v3H41v11h16V46H55z M50,51.72V55
		h-2v-3.28c-0.6-0.35-1-0.98-1-1.72c0-1.1,0.9-2,2-2s2,0.9,2,2C51,50.74,50.6,51.38,50,51.72z"/>
    </g>
  </symbol>
  <symbol id="subicon-locked" viewBox="0 0 64 64">
    <g class="subicon-locked" fill="currentColor">
      <path d="M55,46v-2c0-3.31-2.69-6-6-6s-6,2.69-6,6v2h-2v11h16V46H55z M50,51.72V55h-2v-3.28c-0.6-0.35-1-0.98-1-1.72c0-1.1,0.9-2,2-2s2,0.9,2,2C51,50.74,50.6,51.38,50,51.72z M52,46h-6v-2c0-1.66,1.34-3,3-3s3,1.34,3,3V46z"/>
    </g>
  </symbol>
  <symbol id="insert-left" viewBox="0 0 64 64">
    <g class="insert-left" fill="currentColor">
      <path d="M 37.148438 1.265625 C 36.851562 0.5 36.113281 0 35.292969 0 L 15.292969 0 C 14.46875 0 13.730469 0.5 13.433594 1.265625 C 13.132812 2.03125 13.324219 2.902344 13.929688 3.460938 L 23.929688 12.792969 C 24.3125 13.15625 24.800781 13.332031 25.292969 13.332031 C 25.78125 13.332031 26.269531 13.15625 26.65625 12.792969 L 36.65625 3.460938 C 37.257812 2.902344 37.453125 2.03125 37.148438 1.265625 Z M 37.148438 1.265625 "/>
      <path d="M 13.292969 13.332031 L 7.957031 13.332031 C 5.015625 13.332031 2.625 15.726562 2.625 18.667969 L 2.625 58.667969 C 2.625 61.609375 5.015625 64 7.957031 64 L 13.292969 64 C 16.234375 64 18.625 61.609375 18.625 58.667969 L 18.625 18.667969 C 18.625 15.726562 16.234375 13.332031 13.292969 13.332031 Z M 13.292969 18.664062 L 13.292969 36 L 7.957031 36 L 7.957031 18.667969 Z M 7.957031 58.667969 L 7.957031 41.332031 L 13.292969 41.332031 L 13.292969 58.667969 Z M 7.957031 58.667969 "/>
      <path d="M 55.957031 13.332031 L 37.292969 13.332031 C 34.351562 13.332031 31.957031 15.726562 31.957031 18.667969 L 31.957031 58.667969 C 31.957031 61.609375 34.351562 64 37.292969 64 L 55.957031 64 C 58.898438 64 61.292969 61.609375 61.292969 58.667969 L 61.292969 18.667969 C 61.292969 15.726562 58.898438 13.332031 55.957031 13.332031 Z M 55.957031 36 L 49.292969 36 L 49.292969 18.664062 L 55.957031 18.664062 Z M 43.957031 18.664062 L 43.957031 36 L 37.292969 36 L 37.292969 18.667969 Z M 37.292969 41.332031 L 43.957031 41.332031 L 43.957031 58.667969 L 37.292969 58.667969 Z M 49.292969 58.667969 L 49.292969 41.332031 L 55.957031 41.332031 L 55.957031 58.667969 Z M 49.292969 58.667969 "/>
    </g>
  </symbol>
  <symbol id="insert-right" viewBox="0 0 64 64">
    <g class="insert-right" fill="currentColor">
      <path d="M 50.484375 1.265625 C 50.183594 0.5 49.445312 0 48.625 0 L 28.625 0 C 27.804688 0 27.066406 0.5 26.765625 1.265625 C 26.460938 2.03125 26.660156 2.902344 27.257812 3.460938 L 37.257812 12.792969 C 37.644531 13.15625 38.132812 13.332031 38.625 13.332031 C 39.117188 13.332031 39.605469 13.15625 39.992188 12.792969 L 49.992188 3.460938 C 50.589844 2.902344 50.789062 2.03125 50.484375 1.265625 Z M 50.484375 1.265625 "/>
      <path d="M 55.957031 13.332031 L 50.625 13.332031 C 47.683594 13.332031 45.292969 15.726562 45.292969 18.667969 L 45.292969 58.667969 C 45.292969 61.609375 47.683594 64 50.625 64 L 55.957031 64 C 58.898438 64 61.292969 61.609375 61.292969 58.667969 L 61.292969 18.667969 C 61.292969 15.726562 58.898438 13.332031 55.957031 13.332031 Z M 55.957031 18.667969 L 55.957031 36 L 50.625 36 L 50.625 18.667969 Z M 50.625 58.667969 L 50.625 41.332031 L 55.957031 41.332031 L 55.957031 58.667969 Z M 50.625 58.667969 "/>
      <path d="M 26.625 13.332031 L 7.957031 13.332031 C 5.015625 13.332031 2.625 15.726562 2.625 18.667969 L 2.625 58.667969 C 2.625 61.609375 5.015625 64 7.957031 64 L 26.625 64 C 29.566406 64 31.957031 61.609375 31.957031 58.667969 L 31.957031 18.667969 C 31.957031 15.726562 29.566406 13.332031 26.625 13.332031 Z M 26.625 36 L 19.957031 36 L 19.957031 18.667969 L 26.625 18.667969 Z M 14.625 18.667969 L 14.625 36 L 7.957031 36 L 7.957031 18.667969 Z M 7.957031 41.332031 L 14.625 41.332031 L 14.625 58.667969 L 7.957031 58.667969 Z M 19.957031 58.667969 L 19.957031 41.332031 L 26.625 41.332031 L 26.625 58.667969 Z M 19.957031 58.667969 "/>
    </g>
  </symbol>
  <symbol id="edit" viewBox="0 0 32 32">
    <g class="edit" fill="currentColor">
      <path d="M 19.761719 5.375 L 2.15625 22.984375 C 2.066406 23.070312 2.003906 23.183594 1.972656 23.304688 L 0.0195312 31.136719 C -0.0390625 31.375 0.03125 31.625 0.203125 31.796875 C 0.332031 31.925781 0.511719 32 0.691406 32 C 0.746094 32 0.804688 31.992188 0.859375 31.976562 L 8.691406 30.027344 C 8.816406 29.996094 8.925781 29.933594 9.015625 29.84375 L 26.625 12.234375 Z M 19.761719 5.375 "/>
      <path d="M 30.984375 2.972656 L 29.023438 1.015625 C 27.714844 -0.296875 25.433594 -0.292969 24.125 1.015625 L 21.722656 3.414062 L 28.585938 10.277344 L 30.984375 7.875 C 31.640625 7.222656 32 6.351562 32 5.425781 C 32 4.5 31.640625 3.628906 30.984375 2.972656 Z M 30.984375 2.972656 "/>
    </g>
  </symbol>
  <symbol id="delete" viewBox="0 0 64 64">
    <g class="delete" fill="currentColor">
      <path d="M 49.332031 6.667969 L 41.332031 6.667969 L 40.140625 4.28125 C 39.238281 2.476562 37.390625 1.332031 35.371094 1.332031 L 28.628906 1.332031 C 26.609375 1.332031 24.761719 2.476562 23.859375 4.28125 L 22.667969 6.667969 L 14.667969 6.667969 C 11.71875 6.667969 9.332031 9.054688 9.332031 12 L 9.332031 14.667969 L 54.667969 14.667969 L 54.667969 12 C 54.667969 9.054688 52.28125 6.667969 49.332031 6.667969 Z M 49.332031 6.667969 "/>
      <path d="M 49.332031 5.332031 L 42.15625 5.332031 L 41.332031 3.683594 C 40.195312 1.410156 37.910156 0 35.367188 0 L 28.628906 0 C 26.089844 0 23.804688 1.410156 22.667969 3.683594 L 21.84375 5.332031 L 14.667969 5.332031 C 10.988281 5.332031 8 8.324219 8 12 L 8 14.667969 C 8 15.402344 8.597656 16 9.332031 16 L 54.667969 16 C 55.402344 16 56 15.402344 56 14.667969 L 56 12 C 56 8.324219 53.011719 5.332031 49.332031 5.332031 Z M 53.332031 13.332031 L 10.667969 13.332031 L 10.667969 12 C 10.667969 9.792969 12.460938 8 14.667969 8 L 22.667969 8 C 23.171875 8 23.632812 7.714844 23.859375 7.265625 L 25.054688 4.878906 C 25.734375 3.515625 27.105469 2.667969 28.632812 2.667969 L 35.371094 2.667969 C 36.894531 2.667969 38.265625 3.515625 38.949219 4.878906 L 40.140625 7.265625 C 40.367188 7.714844 40.828125 8 41.332031 8 L 49.332031 8 C 51.539062 8 53.332031 9.792969 53.332031 12 Z M 53.332031 13.332031 "/>
      <path d="M 52 18.667969 L 12 18.667969 C 11.265625 18.667969 10.667969 19.265625 10.667969 20 L 10.667969 54.667969 C 10.667969 59.8125 14.851562 64 20 64 L 44 64 C 49.148438 64 53.332031 59.8125 53.332031 54.667969 L 53.332031 20 C 53.332031 19.265625 52.734375 18.667969 52 18.667969 Z M 21.332031 54.667969 C 21.332031 55.402344 20.734375 56 20 56 C 19.265625 56 18.667969 55.402344 18.667969 54.667969 L 18.667969 22.667969 C 18.667969 21.929688 19.265625 21.332031 20 21.332031 C 20.734375 21.332031 21.332031 21.929688 21.332031 22.667969 Z M 29.332031 54.667969 C 29.332031 55.402344 28.734375 56 28 56 C 27.265625 56 26.667969 55.402344 26.667969 54.667969 L 26.667969 22.667969 C 26.667969 21.929688 27.265625 21.332031 28 21.332031 C 28.734375 21.332031 29.332031 21.929688 29.332031 22.667969 Z M 37.332031 54.667969 C 37.332031 55.402344 36.734375 56 36 56 C 35.265625 56 34.667969 55.402344 34.667969 54.667969 L 34.667969 22.667969 C 34.667969 21.929688 35.265625 21.332031 36 21.332031 C 36.734375 21.332031 37.332031 21.929688 37.332031 22.667969 Z M 45.332031 54.667969 C 45.332031 55.402344 44.734375 56 44 56 C 43.265625 56 42.667969 55.402344 42.667969 54.667969 L 42.667969 22.667969 C 42.667969 21.929688 43.265625 21.332031 44 21.332031 C 44.734375 21.332031 45.332031 21.929688 45.332031 22.667969 Z M 45.332031 54.667969 "/>
    </g>
  </symbol>
  <symbol id="add-light" viewBox="0 0 32 32">
    <g class="add-light" fill="currentColor">
      <path d="M 15.480469 25.773438 L 15.804688 26.316406 L 16.179688 26.816406 L 16.601562 27.273438 L 16.679688 27.34375 L 16.550781 27.40625 L 16.289062 27.476562 L 16 27.5 L 15.710938 27.476562 L 15.449219 27.40625 L 15.210938 27.296875 L 14.996094 27.144531 L 14.804688 26.960938 L 14.640625 26.746094 L 14.5 26.5 L 12.5 26.5 L 12.5 24.5 L 14.960938 24.5 L 14.984375 24.609375 L 15.203125 25.210938 Z M 15.480469 25.773438 "/>
      <path d="M 10.050781 8.800781 C 10.746094 8.578125 16.304688 6.820312 17 6.601562 C 17.699219 6.351562 18.050781 5.550781 17.800781 4.898438 C 17.550781 4.199219 16.75 3.898438 16.050781 4.148438 C 15.359375 4.371094 9.839844 6.128906 9.148438 6.351562 C 8.449219 6.601562 8.101562 7.398438 8.351562 8.050781 C 8.5 8.550781 9.050781 8.898438 9.550781 8.898438 C 9.699219 8.898438 9.898438 8.851562 10.050781 8.800781 Z M 10.050781 8.800781 "/>
      <path d="M 10.050781 12.75 C 11.328125 12.308594 21.570312 8.789062 22.851562 8.351562 C 23.550781 8.101562 23.898438 7.300781 23.648438 6.648438 C 23.398438 5.949219 22.601562 5.648438 21.898438 5.898438 C 20.621094 6.339844 10.378906 9.859375 9.101562 10.300781 C 8.398438 10.550781 8.050781 11.351562 8.300781 12 C 8.5 12.550781 9.050781 12.851562 9.550781 12.851562 C 9.699219 12.851562 9.898438 12.800781 10.050781 12.75 Z M 10.050781 12.75 "/>
      <path d="M 16.195312 22.679688 C 16.195312 19.925781 18.441406 17.679688 21.195312 17.679688 C 23.949219 17.679688 26.195312 19.925781 26.195312 22.679688 C 26.195312 25.433594 23.949219 27.679688 21.195312 27.679688 C 18.441406 27.679688 16.195312 25.433594 16.195312 22.679688 Z M 21.609375 22.265625 C 21.609375 21.199219 21.609375 20.609375 21.609375 20.488281 C 21.609375 20.261719 21.425781 20.074219 21.195312 20.074219 C 20.964844 20.074219 20.78125 20.261719 20.78125 20.488281 C 20.78125 20.609375 20.78125 21.199219 20.78125 22.265625 C 19.714844 22.265625 19.125 22.265625 19.003906 22.265625 C 18.773438 22.265625 18.589844 22.449219 18.589844 22.679688 C 18.589844 22.910156 18.773438 23.09375 19.003906 23.09375 C 19.125 23.09375 19.714844 23.09375 20.78125 23.09375 C 20.78125 24.160156 20.78125 24.75 20.78125 24.863281 C 20.78125 25.09375 20.964844 25.285156 21.195312 25.285156 C 21.425781 25.285156 21.609375 25.09375 21.609375 24.863281 C 21.609375 24.75 21.609375 24.160156 21.609375 23.09375 C 22.675781 23.09375 23.265625 23.09375 23.378906 23.09375 C 23.609375 23.09375 23.800781 22.910156 23.800781 22.679688 C 23.800781 22.449219 23.609375 22.265625 23.378906 22.265625 C 23.144531 22.265625 22.554688 22.265625 21.609375 22.265625 Z M 21.609375 22.265625 "/>
      <path d="M 22.535156 9.773438 L 22.605469 9.785156 L 22.671875 9.800781 L 22.734375 9.816406 L 22.800781 9.835938 L 22.863281 9.855469 L 22.925781 9.878906 L 22.984375 9.910156 L 23.046875 9.941406 L 23.101562 9.976562 L 23.15625 10.015625 L 23.210938 10.050781 L 23.261719 10.09375 L 23.308594 10.140625 L 23.355469 10.191406 L 23.398438 10.238281 L 23.441406 10.296875 L 23.476562 10.351562 L 23.515625 10.410156 L 23.546875 10.46875 L 23.601562 10.601562 L 23.640625 10.726562 L 23.65625 10.789062 L 23.664062 10.859375 L 23.675781 10.925781 L 23.679688 10.988281 L 23.679688 11.121094 L 23.671875 11.183594 L 23.664062 11.25 L 23.648438 11.316406 L 23.636719 11.378906 L 23.613281 11.445312 L 23.59375 11.511719 L 23.570312 11.570312 L 23.539062 11.628906 L 23.511719 11.691406 L 23.480469 11.746094 L 23.441406 11.804688 L 23.398438 11.855469 L 23.359375 11.910156 L 23.316406 11.960938 L 23.269531 12.011719 L 23.21875 12.054688 L 23.164062 12.101562 L 23.109375 12.140625 L 23.054688 12.175781 L 22.996094 12.214844 L 22.929688 12.246094 L 22.863281 12.273438 L 22.800781 12.300781 L 13.199219 15.5 L 13.273438 15.574219 L 13.351562 15.648438 L 13.425781 15.726562 L 13.496094 15.804688 L 13.566406 15.886719 L 13.628906 15.96875 L 13.695312 16.050781 L 13.753906 16.136719 L 13.816406 16.226562 L 13.875 16.316406 L 13.984375 16.496094 L 14.035156 16.585938 L 14.078125 16.679688 L 14.128906 16.773438 L 14.171875 16.875 L 14.210938 16.96875 L 14.25 17.070312 L 14.320312 17.273438 L 14.351562 17.375 L 14.40625 17.585938 L 14.445312 17.796875 L 14.460938 17.898438 L 14.476562 18.011719 L 14.484375 18.121094 L 14.496094 18.230469 L 14.5 18.339844 L 14.5 18.449219 L 16.269531 18.449219 L 16.179688 18.546875 L 15.804688 19.046875 L 15.480469 19.585938 L 15.203125 20.148438 L 14.984375 20.75 L 14.824219 21.371094 L 14.730469 22.015625 L 14.695312 22.679688 L 14.730469 23.34375 L 14.75 23.5 L 11.5 23.5 L 10.5 22.5 L 10.5 18.5 L 11.800781 18.5 L 11.800781 18.421875 L 11.789062 18.339844 L 11.78125 18.265625 L 11.769531 18.191406 L 11.75 18.113281 L 11.710938 17.980469 L 11.683594 17.910156 L 11.65625 17.851562 L 11.621094 17.785156 L 11.589844 17.726562 L 11.550781 17.671875 L 11.511719 17.613281 L 11.46875 17.566406 L 11.429688 17.511719 L 11.386719 17.464844 L 11.335938 17.414062 L 11.289062 17.375 L 11.238281 17.328125 L 11.191406 17.289062 L 11.140625 17.253906 L 11.085938 17.21875 L 11.035156 17.183594 L 10.980469 17.15625 L 10.925781 17.125 L 10.871094 17.101562 L 10.816406 17.074219 L 10.761719 17.054688 L 10.703125 17.035156 L 10.65625 17.015625 L 10.601562 17 L 10.535156 16.980469 L 10.46875 16.964844 L 10.40625 16.945312 L 10.34375 16.929688 L 10.289062 16.921875 L 10.234375 16.90625 L 10.179688 16.894531 L 10.128906 16.878906 L 10.078125 16.871094 L 10.03125 16.859375 L 9.984375 16.855469 L 9.945312 16.84375 L 9.90625 16.839844 L 9.863281 16.835938 L 9.828125 16.824219 L 9.796875 16.824219 L 9.734375 16.816406 L 9.703125 16.808594 L 9.679688 16.808594 L 9.660156 16.804688 L 9.621094 16.804688 L 9.605469 16.800781 L 9.496094 16.800781 L 9.445312 16.796875 L 9.390625 16.789062 L 9.339844 16.785156 L 9.238281 16.761719 L 9.191406 16.75 L 9.140625 16.734375 L 9.039062 16.695312 L 8.996094 16.675781 L 8.949219 16.65625 L 8.90625 16.628906 L 8.859375 16.605469 L 8.816406 16.574219 L 8.773438 16.550781 L 8.730469 16.515625 L 8.691406 16.484375 L 8.65625 16.449219 L 8.613281 16.414062 L 8.578125 16.378906 L 8.546875 16.34375 L 8.511719 16.304688 L 8.480469 16.265625 L 8.449219 16.21875 L 8.421875 16.179688 L 8.390625 16.136719 L 8.363281 16.089844 L 8.339844 16.046875 L 8.320312 16 L 8.300781 15.949219 L 8.261719 15.824219 L 8.246094 15.761719 L 8.230469 15.695312 L 8.21875 15.636719 L 8.210938 15.503906 L 8.210938 15.445312 L 8.214844 15.378906 L 8.21875 15.320312 L 8.230469 15.261719 L 8.238281 15.199219 L 8.253906 15.140625 L 8.273438 15.078125 L 8.296875 15.019531 L 8.34375 14.910156 L 8.371094 14.855469 L 8.40625 14.800781 L 8.433594 14.75 L 8.46875 14.699219 L 8.511719 14.648438 L 8.550781 14.605469 L 8.589844 14.558594 L 8.636719 14.515625 L 8.683594 14.476562 L 8.734375 14.433594 L 8.785156 14.398438 L 8.894531 14.328125 L 8.949219 14.300781 L 8.964844 14.300781 L 8.96875 14.296875 L 8.976562 14.296875 L 8.980469 14.289062 L 8.984375 14.289062 L 8.988281 14.285156 L 8.996094 14.28125 L 9 14.273438 L 9.003906 14.269531 L 9.011719 14.265625 L 9.015625 14.261719 L 9.019531 14.261719 L 9.023438 14.253906 L 9.03125 14.253906 L 9.035156 14.25 L 9.050781 14.25 L 21.851562 9.851562 L 21.921875 9.828125 L 21.984375 9.808594 L 22.054688 9.796875 L 22.125 9.78125 L 22.195312 9.769531 L 22.265625 9.765625 L 22.398438 9.765625 L 22.46875 9.769531 Z M 22.566406 14.164062 L 22.628906 14.179688 L 22.699219 14.195312 L 22.765625 14.214844 L 22.828125 14.234375 L 22.894531 14.261719 L 22.953125 14.289062 L 23.015625 14.320312 L 23.074219 14.355469 L 23.183594 14.433594 L 23.238281 14.476562 L 23.289062 14.519531 L 23.335938 14.570312 L 23.386719 14.613281 L 23.425781 14.671875 L 23.46875 14.726562 L 23.503906 14.78125 L 23.546875 14.835938 L 23.574219 14.894531 L 23.609375 14.953125 L 23.636719 15.019531 L 23.660156 15.085938 L 23.683594 15.148438 L 23.703125 15.21875 L 23.71875 15.285156 L 23.734375 15.355469 L 23.746094 15.429688 L 23.75 15.5 L 23.75 15.566406 L 23.746094 15.636719 L 23.734375 15.699219 L 23.71875 15.765625 L 23.703125 15.828125 L 23.664062 15.953125 L 23.640625 16.015625 L 23.609375 16.070312 L 23.578125 16.128906 L 23.546875 16.183594 L 23.503906 16.238281 L 23.425781 16.339844 L 23.378906 16.390625 L 23.328125 16.433594 L 23.285156 16.480469 L 23.238281 16.515625 L 23.125 16.476562 L 22.503906 16.308594 L 21.859375 16.214844 L 21.195312 16.179688 L 20.53125 16.214844 L 19.886719 16.308594 L 19.265625 16.476562 L 18.664062 16.691406 L 18.101562 16.964844 L 17.558594 17.289062 L 17.546875 17.304688 L 17.574219 17.203125 L 17.636719 17.035156 L 17.703125 16.871094 L 17.859375 16.550781 L 17.949219 16.394531 L 18.046875 16.246094 L 18.144531 16.09375 L 18.25 15.949219 L 18.363281 15.808594 L 18.480469 15.679688 L 18.605469 15.550781 L 18.734375 15.425781 L 18.871094 15.304688 L 19.011719 15.191406 L 19.15625 15.078125 L 19.300781 14.980469 L 19.453125 14.886719 L 19.613281 14.796875 L 19.773438 14.710938 L 19.945312 14.636719 L 20.113281 14.566406 L 20.289062 14.5 L 20.46875 14.445312 L 20.648438 14.398438 L 20.75 14.375 L 20.84375 14.355469 L 20.941406 14.335938 L 21.121094 14.296875 L 21.285156 14.265625 L 21.363281 14.25 L 21.441406 14.238281 L 21.511719 14.230469 L 21.578125 14.214844 L 21.644531 14.210938 L 21.710938 14.199219 L 21.828125 14.183594 L 21.886719 14.179688 L 21.933594 14.175781 L 21.984375 14.171875 L 22.03125 14.164062 L 22.070312 14.160156 L 22.109375 14.160156 L 22.148438 14.15625 L 22.214844 14.15625 L 22.238281 14.148438 L 22.421875 14.148438 L 22.496094 14.15625 Z M 22.566406 14.164062 "/>
    </g>
  </symbol>
  <symbol id="add-light1" viewBox="0 0 32 32">
    <g class="add-light1" fill="currentColor">
      <path d="M 16.394531 25.75 L 16.800781 26.234375 L 17.246094 26.683594 L 17.34375 26.765625 L 17.195312 26.960938 L 17.003906 27.144531 L 16.789062 27.296875 L 16.550781 27.40625 L 16.289062 27.476562 L 16 27.5 L 15.710938 27.476562 L 15.449219 27.40625 L 15.210938 27.296875 L 14.996094 27.144531 L 14.804688 26.960938 L 14.640625 26.746094 L 14.5 26.5 L 12.5 26.5 L 12.5 24.5 L 15.640625 24.5 L 15.71875 24.675781 L 16.035156 25.230469 Z M 16.394531 25.75 "/>
      <path d="M 10.050781 8.800781 C 10.746094 8.578125 16.304688 6.820312 17 6.601562 C 17.699219 6.351562 18.050781 5.550781 17.800781 4.898438 C 17.550781 4.199219 16.75 3.898438 16.050781 4.148438 C 15.359375 4.371094 9.839844 6.128906 9.148438 6.351562 C 8.449219 6.601562 8.101562 7.398438 8.351562 8.050781 C 8.5 8.550781 9.050781 8.898438 9.550781 8.898438 C 9.699219 8.898438 9.898438 8.851562 10.050781 8.800781 Z M 10.050781 8.800781 "/>
      <path d="M 10.050781 12.75 C 11.328125 12.308594 21.570312 8.789062 22.851562 8.351562 C 23.550781 8.101562 23.898438 7.300781 23.648438 6.648438 C 23.398438 5.949219 22.601562 5.648438 21.898438 5.898438 C 20.621094 6.339844 10.378906 9.859375 9.101562 10.300781 C 8.398438 10.550781 8.050781 11.351562 8.300781 12 C 8.5 12.550781 9.050781 12.851562 9.550781 12.851562 C 9.699219 12.851562 9.898438 12.800781 10.050781 12.75 Z M 10.050781 12.75 "/>
      <path d="M 16.964844 21.515625 C 16.964844 18.761719 19.210938 16.515625 21.964844 16.515625 C 24.726562 16.515625 26.964844 18.761719 26.964844 21.515625 C 26.964844 24.273438 24.726562 26.515625 21.964844 26.515625 C 19.210938 26.515625 16.964844 24.273438 16.964844 21.515625 Z M 22.386719 21.101562 C 22.386719 20.039062 22.386719 19.445312 22.386719 19.328125 C 22.386719 19.101562 22.195312 18.914062 21.964844 18.914062 C 21.734375 18.914062 21.550781 19.101562 21.550781 19.328125 C 21.550781 19.445312 21.550781 20.039062 21.550781 21.101562 C 20.484375 21.101562 19.894531 21.101562 19.78125 21.101562 C 19.550781 21.101562 19.359375 21.285156 19.359375 21.515625 C 19.359375 21.746094 19.550781 21.933594 19.78125 21.933594 C 19.894531 21.933594 20.484375 21.933594 21.550781 21.933594 C 21.550781 22.996094 21.550781 23.585938 21.550781 23.703125 C 21.550781 23.933594 21.734375 24.121094 21.964844 24.121094 C 22.195312 24.121094 22.386719 23.933594 22.386719 23.703125 C 22.386719 23.585938 22.386719 22.996094 22.386719 21.933594 C 23.445312 21.933594 24.035156 21.933594 24.15625 21.933594 C 24.386719 21.933594 24.570312 21.746094 24.570312 21.515625 C 24.570312 21.285156 24.386719 21.101562 24.15625 21.101562 C 23.921875 21.101562 23.328125 21.101562 22.386719 21.101562 Z M 22.386719 21.101562 "/>
      <path d="M 22.46875 9.769531 L 22.535156 9.773438 L 22.605469 9.785156 L 22.671875 9.800781 L 22.734375 9.816406 L 22.800781 9.835938 L 22.863281 9.855469 L 22.925781 9.878906 L 22.984375 9.910156 L 23.046875 9.941406 L 23.101562 9.976562 L 23.15625 10.015625 L 23.210938 10.050781 L 23.261719 10.09375 L 23.308594 10.140625 L 23.355469 10.191406 L 23.398438 10.238281 L 23.441406 10.296875 L 23.476562 10.351562 L 23.515625 10.410156 L 23.546875 10.46875 L 23.601562 10.601562 L 23.640625 10.726562 L 23.65625 10.789062 L 23.664062 10.859375 L 23.675781 10.925781 L 23.679688 10.988281 L 23.679688 11.121094 L 23.671875 11.183594 L 23.664062 11.25 L 23.648438 11.316406 L 23.636719 11.378906 L 23.613281 11.445312 L 23.59375 11.511719 L 23.570312 11.570312 L 23.539062 11.628906 L 23.511719 11.691406 L 23.480469 11.746094 L 23.441406 11.804688 L 23.398438 11.855469 L 23.359375 11.910156 L 23.316406 11.960938 L 23.269531 12.011719 L 23.21875 12.054688 L 23.164062 12.101562 L 23.109375 12.140625 L 23.054688 12.175781 L 22.996094 12.214844 L 22.929688 12.246094 L 22.863281 12.273438 L 22.800781 12.300781 L 13.199219 15.5 L 13.273438 15.574219 L 13.351562 15.648438 L 13.425781 15.726562 L 13.496094 15.804688 L 13.566406 15.886719 L 13.628906 15.96875 L 13.695312 16.050781 L 13.753906 16.136719 L 13.816406 16.226562 L 13.875 16.316406 L 13.984375 16.496094 L 14.035156 16.585938 L 14.078125 16.679688 L 14.128906 16.773438 L 14.171875 16.875 L 14.210938 16.96875 L 14.25 17.070312 L 14.320312 17.273438 L 14.351562 17.375 L 14.40625 17.585938 L 14.445312 17.796875 L 14.460938 17.898438 L 14.476562 18.011719 L 14.484375 18.121094 L 14.496094 18.230469 L 14.5 18.339844 L 14.5 18.449219 L 15.679688 18.449219 L 15.453125 18.941406 L 15.246094 19.550781 L 15.09375 20.183594 L 15 20.84375 L 14.964844 21.515625 L 15 22.191406 L 15.09375 22.84375 L 15.246094 23.480469 L 15.253906 23.5 L 11.5 23.5 L 10.5 22.5 L 10.5 18.5 L 11.800781 18.5 L 11.800781 18.421875 L 11.789062 18.339844 L 11.78125 18.265625 L 11.769531 18.191406 L 11.75 18.113281 L 11.710938 17.980469 L 11.683594 17.910156 L 11.65625 17.851562 L 11.621094 17.785156 L 11.589844 17.726562 L 11.550781 17.671875 L 11.511719 17.613281 L 11.46875 17.566406 L 11.429688 17.511719 L 11.386719 17.464844 L 11.335938 17.414062 L 11.289062 17.375 L 11.238281 17.328125 L 11.191406 17.289062 L 11.140625 17.253906 L 11.085938 17.21875 L 11.035156 17.183594 L 10.980469 17.15625 L 10.925781 17.125 L 10.871094 17.101562 L 10.816406 17.074219 L 10.761719 17.054688 L 10.703125 17.035156 L 10.65625 17.015625 L 10.601562 17 L 10.535156 16.980469 L 10.46875 16.964844 L 10.40625 16.945312 L 10.34375 16.929688 L 10.289062 16.921875 L 10.234375 16.90625 L 10.179688 16.894531 L 10.128906 16.878906 L 10.078125 16.871094 L 10.03125 16.859375 L 9.984375 16.855469 L 9.945312 16.84375 L 9.90625 16.839844 L 9.863281 16.835938 L 9.828125 16.824219 L 9.796875 16.824219 L 9.734375 16.816406 L 9.703125 16.808594 L 9.679688 16.808594 L 9.660156 16.804688 L 9.621094 16.804688 L 9.605469 16.800781 L 9.496094 16.800781 L 9.445312 16.796875 L 9.390625 16.789062 L 9.339844 16.785156 L 9.238281 16.761719 L 9.191406 16.75 L 9.140625 16.734375 L 9.039062 16.695312 L 8.996094 16.675781 L 8.949219 16.65625 L 8.90625 16.628906 L 8.859375 16.605469 L 8.816406 16.574219 L 8.773438 16.550781 L 8.730469 16.515625 L 8.691406 16.484375 L 8.65625 16.449219 L 8.613281 16.414062 L 8.578125 16.378906 L 8.546875 16.34375 L 8.511719 16.304688 L 8.480469 16.265625 L 8.449219 16.21875 L 8.421875 16.179688 L 8.390625 16.136719 L 8.363281 16.089844 L 8.339844 16.046875 L 8.320312 16 L 8.300781 15.949219 L 8.261719 15.824219 L 8.246094 15.761719 L 8.230469 15.695312 L 8.21875 15.636719 L 8.210938 15.503906 L 8.210938 15.445312 L 8.214844 15.378906 L 8.21875 15.320312 L 8.230469 15.261719 L 8.238281 15.199219 L 8.253906 15.140625 L 8.273438 15.078125 L 8.296875 15.019531 L 8.34375 14.910156 L 8.371094 14.855469 L 8.40625 14.800781 L 8.433594 14.75 L 8.46875 14.699219 L 8.511719 14.648438 L 8.550781 14.605469 L 8.589844 14.558594 L 8.636719 14.515625 L 8.683594 14.476562 L 8.734375 14.433594 L 8.785156 14.398438 L 8.894531 14.328125 L 8.949219 14.300781 L 8.964844 14.300781 L 8.96875 14.296875 L 8.976562 14.296875 L 8.980469 14.289062 L 8.984375 14.289062 L 8.988281 14.285156 L 8.996094 14.28125 L 9 14.273438 L 9.003906 14.269531 L 9.011719 14.265625 L 9.015625 14.261719 L 9.019531 14.261719 L 9.023438 14.253906 L 9.03125 14.253906 L 9.035156 14.25 L 9.050781 14.25 L 21.851562 9.851562 L 21.921875 9.828125 L 21.984375 9.808594 L 22.054688 9.796875 L 22.125 9.78125 L 22.195312 9.769531 L 22.265625 9.765625 L 22.398438 9.765625 Z M 22.496094 14.15625 L 22.566406 14.164062 L 22.628906 14.179688 L 22.699219 14.195312 L 22.765625 14.214844 L 22.828125 14.234375 L 22.894531 14.261719 L 22.953125 14.289062 L 23.015625 14.320312 L 23.074219 14.355469 L 23.183594 14.433594 L 23.238281 14.476562 L 23.289062 14.519531 L 23.335938 14.570312 L 23.386719 14.613281 L 23.425781 14.671875 L 23.429688 14.675781 L 23.296875 14.644531 L 22.640625 14.550781 L 21.964844 14.515625 L 21.296875 14.550781 L 20.636719 14.644531 L 20 14.796875 L 19.390625 15.003906 L 19.046875 15.160156 L 19.15625 15.078125 L 19.300781 14.980469 L 19.453125 14.886719 L 19.613281 14.796875 L 19.773438 14.710938 L 19.945312 14.636719 L 20.113281 14.566406 L 20.289062 14.5 L 20.46875 14.445312 L 20.648438 14.398438 L 20.75 14.375 L 20.84375 14.355469 L 20.941406 14.335938 L 21.121094 14.296875 L 21.285156 14.265625 L 21.363281 14.25 L 21.441406 14.238281 L 21.511719 14.230469 L 21.578125 14.214844 L 21.644531 14.210938 L 21.710938 14.199219 L 21.828125 14.183594 L 21.886719 14.179688 L 21.933594 14.175781 L 21.984375 14.171875 L 22.03125 14.164062 L 22.070312 14.160156 L 22.109375 14.160156 L 22.148438 14.15625 L 22.214844 14.15625 L 22.238281 14.148438 L 22.421875 14.148438 Z M 22.496094 14.15625 "/>
    </g>
  </symbol>
  <symbol id="insert-light-right" viewBox="0 0 64 64">
    <g class="insert-light-right" fill="currentColor">
      <path d="M 6.683594 19.238281 C 7.953125 18.835938 18.121094 15.617188 19.390625 15.214844 C 20.671875 14.757812 21.3125 13.292969 20.855469 12.105469 C 20.398438 10.824219 18.933594 10.277344 17.65625 10.734375 C 16.394531 11.136719 6.300781 14.355469 5.039062 14.757812 C 3.757812 15.214844 3.117188 16.675781 3.574219 17.863281 C 3.847656 18.78125 4.855469 19.417969 5.769531 19.417969 C 6.042969 19.417969 6.410156 19.328125 6.683594 19.238281 Z M 6.683594 19.238281 "/>
      <path d="M 12.800781 51.601562 L 14.820312 51.601562 L 15.078125 52.050781 L 15.378906 52.445312 L 15.726562 52.78125 L 16.117188 53.054688 L 16.546875 53.257812 L 17.03125 53.386719 L 17.5625 53.429688 L 18.085938 53.386719 L 18.570312 53.257812 L 19.007812 53.054688 L 19.390625 52.78125 L 19.738281 52.445312 L 20.042969 52.050781 L 20.304688 51.601562 L 23.964844 51.601562 L 23.964844 47.945312 L 11.164062 47.945312 L 11.164062 51.601562 Z M 12.800781 51.601562 "/>
      <path d="M 6.683594 26.460938 C 9.023438 25.65625 27.75 19.21875 30.089844 18.414062 C 31.371094 17.957031 32.007812 16.492188 31.550781 15.304688 C 31.09375 14.023438 29.632812 13.476562 28.351562 13.933594 C 26.011719 14.738281 7.285156 21.175781 4.945312 21.980469 C 3.667969 22.4375 3.027344 23.898438 3.484375 25.089844 C 3.847656 26.09375 4.855469 26.640625 5.769531 26.640625 C 6.042969 26.640625 6.410156 26.550781 6.683594 26.460938 Z M 6.683594 26.460938 "/>
      <path d="M 25.40625 29.660156 L 25.089844 29.777344 L 24.769531 29.90625 L 24.464844 30.042969 L 24.164062 30.199219 L 23.882812 30.355469 L 23.597656 30.539062 L 23.324219 30.71875 L 23.058594 30.921875 L 22.800781 31.132812 L 22.566406 31.339844 L 22.328125 31.570312 L 22.097656 31.808594 L 21.878906 32.054688 L 21.675781 32.3125 L 21.476562 32.574219 L 21.292969 32.839844 L 21.121094 33.125 L 20.964844 33.40625 L 20.808594 33.699219 L 20.671875 33.992188 L 20.554688 34.292969 L 20.433594 34.605469 L 20.34375 34.917969 L 20.25 35.238281 L 20.179688 35.554688 L 20.125 35.886719 L 20.078125 36.214844 L 20.042969 36.542969 L 20.03125 36.882812 L 14.820312 36.882812 L 14.8125 36.679688 L 14.800781 36.472656 L 14.792969 36.277344 L 14.773438 36.078125 L 14.746094 35.875 L 14.71875 35.683594 L 14.683594 35.484375 L 14.636719 35.292969 L 14.59375 35.097656 L 14.546875 34.917969 L 14.492188 34.722656 L 14.425781 34.542969 L 14.363281 34.359375 L 14.289062 34.175781 L 14.21875 33.992188 L 14.136719 33.820312 L 14.050781 33.644531 L 13.960938 33.472656 L 13.871094 33.308594 L 13.777344 33.132812 L 13.667969 32.96875 L 13.566406 32.8125 L 13.457031 32.648438 L 13.339844 32.492188 L 13.230469 32.339844 L 13.101562 32.191406 L 12.972656 32.046875 L 12.847656 31.898438 L 12.71875 31.753906 L 12.582031 31.617188 L 12.445312 31.488281 L 12.644531 31.414062 L 12.929688 31.324219 L 13.277344 31.203125 L 13.675781 31.066406 L 14.144531 30.921875 L 14.664062 30.746094 L 15.222656 30.554688 L 15.835938 30.355469 L 16.476562 30.144531 L 17.152344 29.914062 L 17.855469 29.675781 L 18.578125 29.441406 L 19.320312 29.191406 L 20.078125 28.9375 L 20.835938 28.691406 L 21.59375 28.433594 L 22.363281 28.179688 L 23.113281 27.929688 L 23.855469 27.675781 L 24.585938 27.4375 L 25.289062 27.199219 L 25.957031 26.980469 L 26.605469 26.761719 L 27.210938 26.558594 L 27.777344 26.378906 L 28.289062 26.203125 L 28.753906 26.046875 L 29.164062 25.910156 L 29.503906 25.792969 L 29.789062 25.699219 L 29.996094 25.636719 L 30.117188 25.589844 L 30.234375 25.535156 L 30.34375 25.472656 L 30.453125 25.40625 L 30.566406 25.34375 L 30.664062 25.261719 L 30.757812 25.1875 L 30.847656 25.097656 L 30.9375 25.015625 L 31.023438 24.921875 L 31.09375 24.824219 L 31.167969 24.722656 L 31.230469 24.621094 L 31.296875 24.519531 L 31.40625 24.300781 L 31.453125 24.183594 L 31.488281 24.074219 L 31.523438 23.953125 L 31.550781 23.835938 L 31.570312 23.714844 L 31.589844 23.597656 L 31.597656 23.480469 L 31.605469 23.359375 L 31.605469 23.242188 L 31.597656 23.113281 L 31.578125 22.996094 L 31.5625 22.875 L 31.535156 22.757812 L 31.496094 22.636719 L 31.460938 22.527344 L 31.40625 22.398438 L 31.359375 22.289062 L 31.296875 22.171875 L 31.230469 22.070312 L 31.160156 21.960938 L 31.085938 21.871094 L 31.003906 21.769531 L 30.921875 21.6875 L 30.828125 21.605469 L 30.738281 21.523438 L 30.648438 21.449219 L 30.546875 21.386719 L 30.4375 21.320312 L 30.335938 21.265625 L 30.226562 21.210938 L 30.109375 21.164062 L 29.996094 21.128906 L 29.878906 21.09375 L 29.761719 21.054688 L 29.632812 21.039062 L 29.511719 21.019531 L 29.386719 21 L 29.265625 20.992188 L 29.136719 20.992188 L 29.011719 21 L 28.882812 21.011719 L 28.761719 21.027344 L 28.636719 21.046875 L 28.507812 21.074219 L 28.378906 21.109375 L 28.261719 21.15625 L 27.976562 21.246094 L 27.613281 21.375 L 27.144531 21.53125 L 26.605469 21.722656 L 25.984375 21.933594 L 25.296875 22.171875 L 24.539062 22.425781 L 23.734375 22.710938 L 22.875 23.003906 L 21.980469 23.3125 L 21.039062 23.632812 L 20.078125 23.964844 L 19.082031 24.3125 L 18.074219 24.648438 L 17.0625 25.003906 L 15.03125 25.699219 L 14.023438 26.046875 L 13.039062 26.386719 L 12.070312 26.714844 L 11.125 27.042969 L 10.230469 27.347656 L 9.371094 27.648438 L 8.566406 27.921875 L 7.816406 28.179688 L 7.121094 28.414062 L 6.507812 28.636719 L 5.960938 28.816406 L 5.503906 28.972656 L 5.128906 29.101562 L 4.855469 29.203125 L 4.816406 29.203125 L 4.808594 29.210938 L 4.800781 29.210938 L 4.789062 29.21875 L 4.78125 29.21875 L 4.78125 29.230469 L 4.773438 29.230469 L 4.773438 29.238281 L 4.761719 29.238281 L 4.753906 29.246094 L 4.746094 29.257812 L 4.734375 29.265625 L 4.726562 29.277344 L 4.71875 29.277344 L 4.707031 29.285156 L 4.691406 29.285156 L 4.679688 29.292969 L 4.671875 29.292969 L 4.5625 29.347656 L 4.460938 29.402344 L 4.371094 29.46875 L 4.269531 29.539062 L 4.179688 29.613281 L 4.097656 29.6875 L 4.015625 29.769531 L 3.867188 29.933594 L 3.792969 30.023438 L 3.730469 30.117188 L 3.667969 30.207031 L 3.613281 30.308594 L 3.554688 30.410156 L 3.511719 30.507812 L 3.472656 30.609375 L 3.402344 30.828125 L 3.375 30.929688 L 3.355469 31.050781 L 3.335938 31.160156 L 3.328125 31.269531 L 3.320312 31.386719 L 3.320312 31.496094 L 3.328125 31.617188 L 3.335938 31.726562 L 3.355469 31.84375 L 3.375 31.964844 L 3.402344 32.074219 L 3.4375 32.191406 L 3.484375 32.3125 L 3.519531 32.394531 L 3.554688 32.484375 L 3.695312 32.730469 L 3.804688 32.878906 L 3.867188 32.949219 L 3.921875 33.023438 L 3.984375 33.097656 L 4.058594 33.160156 L 4.125 33.226562 L 4.195312 33.289062 L 4.34375 33.398438 L 4.425781 33.453125 L 4.5 33.507812 L 4.664062 33.601562 L 4.753906 33.636719 L 4.835938 33.671875 L 4.929688 33.710938 L 5.011719 33.738281 L 5.191406 33.792969 L 5.285156 33.808594 L 5.386719 33.828125 L 5.476562 33.847656 L 5.566406 33.855469 L 5.667969 33.855469 L 5.769531 33.863281 L 5.898438 33.863281 L 5.925781 33.875 L 6.007812 33.875 L 6.050781 33.882812 L 6.109375 33.890625 L 6.152344 33.890625 L 6.21875 33.902344 L 6.28125 33.910156 L 6.34375 33.921875 L 6.410156 33.9375 L 6.492188 33.949219 L 6.566406 33.957031 L 6.648438 33.976562 L 6.730469 33.992188 L 6.820312 34.011719 L 6.921875 34.03125 L 7.011719 34.058594 L 7.113281 34.074219 L 7.441406 34.15625 L 7.5625 34.195312 L 7.6875 34.230469 L 7.78125 34.257812 L 7.882812 34.285156 L 7.980469 34.324219 L 8.082031 34.367188 L 8.285156 34.460938 L 8.375 34.515625 L 8.476562 34.570312 L 8.574219 34.632812 L 8.667969 34.695312 L 8.769531 34.761719 L 8.859375 34.835938 L 8.949219 34.90625 L 9.03125 34.988281 L 9.117188 35.070312 L 9.199219 35.164062 L 9.28125 35.253906 L 9.351562 35.355469 L 9.425781 35.457031 L 9.492188 35.554688 L 9.554688 35.667969 L 9.609375 35.777344 L 9.664062 35.894531 L 9.710938 36.015625 L 9.753906 36.140625 L 9.792969 36.269531 L 9.820312 36.398438 L 9.847656 36.535156 L 9.863281 36.679688 L 9.875 36.816406 L 9.882812 36.972656 L 7.507812 36.972656 L 7.507812 44.289062 L 9.335938 46.117188 L 25.792969 46.117188 L 27.621094 44.289062 L 27.621094 36.972656 L 25.0625 36.972656 L 25.070312 36.816406 L 25.089844 36.679688 L 25.117188 36.535156 L 25.144531 36.398438 L 25.214844 36.140625 L 25.261719 36.015625 L 25.308594 35.894531 L 25.363281 35.777344 L 25.425781 35.667969 L 25.492188 35.554688 L 25.554688 35.457031 L 25.628906 35.355469 L 25.699219 35.253906 L 25.78125 35.164062 L 25.863281 35.070312 L 25.949219 34.988281 L 26.039062 34.90625 L 26.128906 34.835938 L 26.222656 34.761719 L 26.3125 34.695312 L 26.515625 34.570312 L 26.613281 34.515625 L 26.714844 34.460938 L 26.917969 34.367188 L 27.027344 34.324219 L 27.125 34.285156 L 27.238281 34.257812 L 27.566406 34.175781 L 27.675781 34.15625 L 27.777344 34.128906 L 27.875 34.113281 L 27.96875 34.085938 L 28.070312 34.066406 L 28.152344 34.046875 L 28.242188 34.03125 L 28.324219 34.019531 L 28.398438 34.003906 L 28.480469 33.984375 L 28.554688 33.976562 L 28.617188 33.957031 L 28.679688 33.949219 L 28.746094 33.9375 L 28.855469 33.921875 L 28.910156 33.910156 L 28.957031 33.902344 L 29 33.890625 L 29.046875 33.882812 L 29.082031 33.882812 L 29.121094 33.875 L 29.175781 33.875 L 29.203125 33.863281 L 29.265625 33.863281 L 29.523438 33.847656 L 29.648438 33.828125 L 29.777344 33.808594 L 29.90625 33.78125 L 30.023438 33.746094 L 30.144531 33.710938 L 30.253906 33.65625 L 30.371094 33.609375 L 30.472656 33.554688 L 30.582031 33.492188 L 30.683594 33.425781 L 30.785156 33.351562 L 30.875 33.269531 L 30.96875 33.199219 L 31.058594 33.117188 L 31.140625 33.023438 L 31.214844 32.933594 L 31.285156 32.832031 L 31.351562 32.742188 L 31.414062 32.640625 L 31.480469 32.53125 L 31.523438 32.421875 L 31.570312 32.3125 L 31.617188 32.199219 L 31.652344 32.082031 L 31.679688 31.972656 L 31.699219 31.855469 L 31.714844 31.734375 L 31.726562 31.605469 L 31.734375 31.488281 L 31.714844 31.351562 L 31.699219 31.222656 L 31.679688 31.09375 L 31.644531 30.96875 L 31.617188 30.847656 L 31.570312 30.730469 L 31.523438 30.609375 L 31.46875 30.492188 L 31.414062 30.382812 L 31.351562 30.273438 L 31.285156 30.164062 L 31.214844 30.0625 L 31.140625 29.960938 L 31.058594 29.871094 L 30.976562 29.777344 L 30.882812 29.695312 L 30.703125 29.53125 L 30.601562 29.457031 L 30.492188 29.394531 L 30.390625 29.332031 L 30.164062 29.21875 L 30.050781 29.175781 L 29.933594 29.136719 L 29.816406 29.101562 L 29.558594 29.046875 L 29.429688 29.027344 L 29.304688 29.019531 L 28.917969 29.019531 L 28.863281 29.027344 L 28.734375 29.027344 L 28.664062 29.039062 L 28.582031 29.046875 L 28.5 29.046875 L 28.414062 29.054688 L 28.316406 29.066406 L 28.214844 29.082031 L 28.113281 29.09375 L 28.003906 29.101562 L 27.886719 29.121094 L 27.765625 29.136719 L 27.640625 29.15625 L 27.511719 29.183594 L 27.363281 29.203125 L 27.226562 29.230469 L 27.070312 29.257812 L 26.917969 29.285156 L 26.761719 29.320312 L 26.597656 29.359375 L 26.421875 29.394531 L 26.25 29.429688 L 26.066406 29.476562 L 25.726562 29.558594 Z M 25.40625 29.660156 "/>
      <path d="M 33.253906 31.617188 C 33.253906 24.054688 39.40625 17.902344 46.96875 17.902344 C 54.527344 17.902344 60.679688 24.054688 60.679688 31.617188 C 60.679688 39.1875 54.527344 45.332031 46.96875 45.332031 C 39.40625 45.332031 33.253906 39.1875 33.253906 31.617188 Z M 48.109375 30.472656 C 48.109375 27.566406 48.109375 25.949219 48.109375 25.617188 C 48.109375 24.988281 47.597656 24.476562 46.96875 24.476562 C 46.335938 24.476562 45.824219 24.988281 45.824219 25.617188 C 45.824219 25.949219 45.824219 27.566406 45.824219 30.472656 C 42.90625 30.472656 41.289062 30.472656 40.96875 30.472656 C 40.339844 30.472656 39.828125 30.984375 39.828125 31.617188 C 39.828125 32.246094 40.339844 32.757812 40.96875 32.757812 C 41.289062 32.757812 42.90625 32.757812 45.824219 32.757812 C 45.824219 35.675781 45.824219 37.292969 45.824219 37.621094 C 45.824219 38.253906 46.335938 38.765625 46.96875 38.765625 C 47.597656 38.765625 48.109375 38.253906 48.109375 37.621094 C 48.109375 37.292969 48.109375 35.675781 48.109375 32.757812 C 51.027344 32.757812 52.644531 32.757812 52.964844 32.757812 C 53.59375 32.757812 54.109375 32.246094 54.109375 31.617188 C 54.109375 30.984375 53.59375 30.472656 52.964844 30.472656 C 52.316406 30.472656 50.695312 30.472656 48.109375 30.472656 Z M 48.109375 30.472656 "/>
    </g>
  </symbol>
  <symbol id="insert-light-left" viewBox="0 0 64 64">
    <g class="insert-light-left" fill="currentColor">
      <path d="M 35.628906 19.238281 C 36.902344 18.835938 47.066406 15.617188 48.339844 15.214844 C 49.617188 14.757812 50.257812 13.292969 49.800781 12.105469 C 49.34375 10.824219 47.882812 10.277344 46.601562 10.734375 C 45.339844 11.136719 35.246094 14.355469 33.984375 14.757812 C 32.703125 15.214844 32.0625 16.675781 32.519531 17.863281 C 32.796875 18.78125 33.800781 19.417969 34.714844 19.417969 C 34.988281 19.417969 35.355469 19.328125 35.628906 19.238281 Z M 35.628906 19.238281 "/>
      <path d="M 41.753906 51.601562 L 43.765625 51.601562 L 44.023438 52.050781 L 44.324219 52.445312 L 44.671875 52.78125 L 45.066406 53.054688 L 45.503906 53.257812 L 45.980469 53.386719 L 46.507812 53.429688 L 47.039062 53.386719 L 47.515625 53.257812 L 47.953125 53.054688 L 48.347656 52.78125 L 48.695312 52.445312 L 48.996094 52.050781 L 49.253906 51.601562 L 52.910156 51.601562 L 52.910156 47.945312 L 40.109375 47.945312 L 40.109375 51.601562 Z M 41.753906 51.601562 "/>
      <path d="M 35.628906 26.460938 C 37.96875 25.65625 56.695312 19.21875 59.035156 18.414062 C 60.316406 17.957031 60.957031 16.492188 60.5 15.304688 C 60.042969 14.023438 58.578125 13.476562 57.296875 13.933594 C 54.957031 14.738281 36.234375 21.175781 33.890625 21.980469 C 32.613281 22.4375 31.972656 23.898438 32.429688 25.089844 C 32.796875 26.09375 33.800781 26.640625 34.714844 26.640625 C 34.988281 26.640625 35.355469 26.550781 35.628906 26.460938 Z M 35.628906 26.460938 "/>
      <path d="M 54.355469 29.660156 L 54.035156 29.777344 L 53.722656 29.90625 L 53.414062 30.042969 L 52.828125 30.355469 L 52.542969 30.539062 L 52.269531 30.71875 L 52.015625 30.921875 L 51.757812 31.132812 L 51.511719 31.339844 L 51.273438 31.570312 L 51.042969 31.808594 L 50.835938 32.054688 L 50.625 32.3125 L 50.433594 32.574219 L 50.25 32.839844 L 50.074219 33.125 L 49.910156 33.40625 L 49.765625 33.699219 L 49.628906 33.992188 L 49.5 34.292969 L 49.390625 34.605469 L 49.289062 34.917969 L 49.199219 35.238281 L 49.132812 35.554688 L 49.070312 35.886719 L 49.023438 36.214844 L 48.996094 36.542969 L 48.976562 36.882812 L 43.765625 36.882812 L 43.765625 36.679688 L 43.757812 36.472656 L 43.738281 36.277344 L 43.722656 36.078125 L 43.695312 35.875 L 43.667969 35.683594 L 43.628906 35.484375 L 43.59375 35.292969 L 43.546875 35.097656 L 43.492188 34.917969 L 43.4375 34.722656 L 43.375 34.542969 L 43.308594 34.359375 L 43.238281 34.175781 L 43.164062 33.992188 L 43.089844 33.820312 L 43 33.644531 L 42.917969 33.472656 L 42.816406 33.308594 L 42.722656 33.132812 L 42.625 32.96875 L 42.515625 32.8125 L 42.40625 32.648438 L 42.292969 32.492188 L 42.175781 32.339844 L 42.058594 32.191406 L 41.929688 32.046875 L 41.800781 31.898438 L 41.664062 31.753906 L 41.527344 31.617188 L 41.390625 31.488281 L 41.601562 31.414062 L 41.875 31.324219 L 42.222656 31.203125 L 42.632812 31.066406 L 43.089844 30.921875 L 43.613281 30.746094 L 44.179688 30.554688 L 44.78125 30.355469 L 45.421875 30.144531 L 46.097656 29.914062 L 46.800781 29.675781 L 47.523438 29.441406 L 48.265625 29.191406 L 49.023438 28.9375 L 49.78125 28.691406 L 50.550781 28.433594 L 51.308594 28.179688 L 52.070312 27.929688 L 52.808594 27.675781 L 53.53125 27.4375 L 54.234375 27.199219 L 54.910156 26.980469 L 55.550781 26.761719 L 56.15625 26.558594 L 56.722656 26.378906 L 57.234375 26.203125 L 57.699219 26.046875 L 58.113281 25.910156 L 58.460938 25.792969 L 58.734375 25.699219 L 58.945312 25.636719 L 59.0625 25.589844 L 59.183594 25.535156 L 59.300781 25.472656 L 59.410156 25.40625 L 59.511719 25.34375 L 59.613281 25.261719 L 59.710938 25.1875 L 59.804688 25.097656 L 59.886719 25.015625 L 59.96875 24.921875 L 60.042969 24.824219 L 60.113281 24.722656 L 60.179688 24.621094 L 60.242188 24.519531 L 60.351562 24.300781 L 60.398438 24.183594 L 60.433594 24.074219 L 60.472656 23.953125 L 60.5 23.835938 L 60.527344 23.714844 L 60.535156 23.597656 L 60.554688 23.480469 L 60.554688 23.242188 L 60.542969 23.113281 L 60.527344 22.996094 L 60.507812 22.875 L 60.480469 22.757812 L 60.445312 22.636719 L 60.40625 22.527344 L 60.359375 22.398438 L 60.304688 22.289062 L 60.242188 22.171875 L 60.179688 22.070312 L 60.113281 21.960938 L 60.042969 21.871094 L 59.957031 21.769531 L 59.875 21.6875 L 59.695312 21.523438 L 59.59375 21.449219 L 59.492188 21.386719 L 59.390625 21.320312 L 59.171875 21.210938 L 59.0625 21.164062 L 58.945312 21.128906 L 58.824219 21.09375 L 58.707031 21.054688 L 58.585938 21.039062 L 58.460938 21.019531 L 58.339844 21 L 58.210938 20.992188 L 58.085938 20.992188 L 57.964844 21 L 57.835938 21.011719 L 57.710938 21.027344 L 57.582031 21.046875 L 57.453125 21.074219 L 57.335938 21.109375 L 57.207031 21.15625 L 56.933594 21.246094 L 56.558594 21.375 L 56.101562 21.53125 L 55.550781 21.722656 L 54.929688 21.933594 L 54.246094 22.171875 L 53.496094 22.425781 L 52.679688 22.710938 L 51.832031 23.003906 L 50.925781 23.3125 L 49.992188 23.632812 L 49.023438 23.964844 L 48.035156 24.3125 L 47.03125 24.648438 L 46.015625 25.003906 L 44.992188 25.351562 L 43.976562 25.699219 L 42.972656 26.046875 L 41.984375 26.386719 L 41.015625 26.714844 L 40.082031 27.042969 L 39.175781 27.347656 L 38.328125 27.648438 L 37.511719 27.921875 L 36.761719 28.179688 L 36.078125 28.414062 L 35.457031 28.636719 L 34.90625 28.816406 L 34.449219 28.972656 L 34.074219 29.101562 L 33.800781 29.203125 L 33.765625 29.203125 L 33.753906 29.210938 L 33.746094 29.210938 L 33.71875 29.238281 L 33.710938 29.238281 L 33.710938 29.246094 L 33.699219 29.246094 L 33.699219 29.257812 L 33.691406 29.257812 L 33.691406 29.265625 L 33.683594 29.265625 L 33.683594 29.277344 L 33.664062 29.277344 L 33.664062 29.285156 L 33.644531 29.285156 L 33.636719 29.292969 L 33.617188 29.292969 L 33.519531 29.347656 L 33.417969 29.402344 L 33.316406 29.46875 L 33.226562 29.539062 L 33.132812 29.613281 L 33.042969 29.6875 L 32.960938 29.769531 L 32.8125 29.933594 L 32.742188 30.023438 L 32.675781 30.117188 L 32.613281 30.207031 L 32.558594 30.308594 L 32.511719 30.410156 L 32.464844 30.507812 L 32.421875 30.609375 L 32.382812 30.71875 L 32.347656 30.828125 L 32.320312 30.929688 L 32.300781 31.050781 L 32.285156 31.160156 L 32.273438 31.269531 L 32.265625 31.386719 L 32.265625 31.496094 L 32.273438 31.617188 L 32.285156 31.726562 L 32.300781 31.84375 L 32.328125 31.964844 L 32.355469 32.074219 L 32.382812 32.191406 L 32.429688 32.3125 L 32.464844 32.394531 L 32.503906 32.484375 L 32.546875 32.566406 L 32.59375 32.648438 L 32.648438 32.730469 L 32.757812 32.878906 L 32.8125 32.949219 L 32.878906 33.023438 L 32.941406 33.097656 L 33.070312 33.226562 L 33.144531 33.289062 L 33.214844 33.34375 L 33.296875 33.398438 L 33.371094 33.453125 L 33.453125 33.507812 L 33.617188 33.601562 L 33.78125 33.671875 L 33.875 33.710938 L 33.964844 33.738281 L 34.058594 33.765625 L 34.148438 33.792969 L 34.238281 33.808594 L 34.332031 33.828125 L 34.421875 33.847656 L 34.523438 33.855469 L 34.613281 33.855469 L 34.714844 33.863281 L 34.84375 33.863281 L 34.878906 33.875 L 34.953125 33.875 L 35 33.882812 L 35.054688 33.890625 L 35.109375 33.890625 L 35.164062 33.902344 L 35.226562 33.910156 L 35.292969 33.921875 L 35.363281 33.9375 L 35.4375 33.949219 L 35.511719 33.957031 L 35.59375 33.976562 L 35.683594 33.992188 L 35.777344 34.011719 L 35.867188 34.03125 L 35.96875 34.058594 L 36.070312 34.074219 L 36.167969 34.101562 L 36.277344 34.128906 L 36.398438 34.15625 L 36.515625 34.195312 L 36.636719 34.230469 L 36.734375 34.257812 L 36.828125 34.285156 L 36.929688 34.324219 L 37.027344 34.367188 L 37.230469 34.460938 L 37.332031 34.515625 L 37.429688 34.570312 L 37.523438 34.632812 L 37.621094 34.695312 L 37.714844 34.761719 L 37.804688 34.835938 L 37.898438 34.90625 L 37.980469 34.988281 L 38.070312 35.070312 L 38.152344 35.164062 L 38.226562 35.253906 L 38.300781 35.355469 L 38.371094 35.457031 L 38.445312 35.554688 L 38.5 35.667969 L 38.566406 35.777344 L 38.621094 35.894531 L 38.664062 36.015625 L 38.703125 36.140625 L 38.773438 36.398438 L 38.792969 36.535156 L 38.8125 36.679688 L 38.828125 36.816406 L 38.828125 36.972656 L 36.453125 36.972656 L 36.453125 44.289062 L 38.28125 46.117188 L 54.738281 46.117188 L 56.566406 44.289062 L 56.566406 36.972656 L 54.007812 36.972656 L 54.015625 36.816406 L 54.035156 36.679688 L 54.0625 36.535156 L 54.089844 36.398438 L 54.125 36.269531 L 54.164062 36.140625 L 54.207031 36.015625 L 54.261719 35.894531 L 54.316406 35.777344 L 54.371094 35.667969 L 54.4375 35.554688 L 54.507812 35.457031 L 54.574219 35.355469 L 54.65625 35.253906 L 54.730469 35.164062 L 54.8125 35.070312 L 54.902344 34.988281 L 54.984375 34.90625 L 55.078125 34.835938 L 55.167969 34.761719 L 55.269531 34.695312 L 55.359375 34.632812 L 55.460938 34.570312 L 55.5625 34.515625 L 55.660156 34.460938 L 55.761719 34.414062 L 55.871094 34.367188 L 55.972656 34.324219 L 56.082031 34.285156 L 56.183594 34.257812 L 56.511719 34.175781 L 56.621094 34.15625 L 56.722656 34.128906 L 56.824219 34.113281 L 56.921875 34.085938 L 57.015625 34.066406 L 57.105469 34.046875 L 57.1875 34.03125 L 57.269531 34.019531 L 57.351562 34.003906 L 57.425781 33.984375 L 57.5 33.976562 L 57.5625 33.957031 L 57.636719 33.949219 L 57.691406 33.9375 L 57.753906 33.929688 L 57.808594 33.921875 L 57.855469 33.910156 L 57.910156 33.902344 L 57.957031 33.890625 L 57.992188 33.882812 L 58.03125 33.882812 L 58.066406 33.875 L 58.121094 33.875 L 58.148438 33.863281 L 58.210938 33.863281 L 58.339844 33.855469 L 58.476562 33.847656 L 58.605469 33.828125 L 58.722656 33.808594 L 58.851562 33.78125 L 58.972656 33.746094 L 59.089844 33.710938 L 59.210938 33.65625 L 59.320312 33.609375 L 59.429688 33.554688 L 59.527344 33.492188 L 59.628906 33.425781 L 59.730469 33.351562 L 59.832031 33.269531 L 59.914062 33.199219 L 60.003906 33.117188 L 60.085938 33.023438 L 60.160156 32.933594 L 60.234375 32.832031 L 60.304688 32.742188 L 60.371094 32.640625 L 60.480469 32.421875 L 60.527344 32.3125 L 60.5625 32.199219 L 60.597656 32.082031 L 60.625 31.972656 L 60.652344 31.855469 L 60.671875 31.734375 L 60.679688 31.605469 L 60.679688 31.488281 L 60.671875 31.351562 L 60.652344 31.222656 L 60.625 31.09375 L 60.597656 30.96875 L 60.5625 30.847656 L 60.515625 30.730469 L 60.472656 30.609375 L 60.425781 30.492188 L 60.359375 30.382812 L 60.304688 30.273438 L 60.234375 30.164062 L 60.167969 30.0625 L 60.085938 29.960938 L 60.003906 29.871094 L 59.921875 29.777344 L 59.839844 29.695312 L 59.738281 29.613281 L 59.648438 29.53125 L 59.546875 29.457031 L 59.445312 29.394531 L 59.335938 29.332031 L 59.226562 29.277344 L 59.117188 29.21875 L 59 29.175781 L 58.878906 29.136719 L 58.761719 29.101562 L 58.632812 29.074219 L 58.515625 29.046875 L 58.386719 29.027344 L 58.25 29.019531 L 57.875 29.019531 L 57.808594 29.027344 L 57.683594 29.027344 L 57.609375 29.039062 L 57.535156 29.046875 L 57.453125 29.046875 L 57.363281 29.054688 L 57.269531 29.066406 L 57.171875 29.082031 L 57.0625 29.09375 L 56.949219 29.101562 L 56.832031 29.121094 L 56.714844 29.136719 L 56.585938 29.15625 L 56.457031 29.183594 L 56.320312 29.203125 L 56.171875 29.230469 L 56.027344 29.257812 L 55.871094 29.285156 L 55.707031 29.320312 L 55.542969 29.359375 L 55.371094 29.394531 L 55.195312 29.429688 L 55.011719 29.476562 L 54.683594 29.558594 Z M 54.355469 29.660156 "/>
      <path d="M 30.746094 31.617188 C 30.746094 24.054688 24.59375 17.902344 17.03125 17.902344 C 9.472656 17.902344 3.320312 24.054688 3.320312 31.617188 C 3.320312 39.1875 9.472656 45.332031 17.03125 45.332031 C 24.59375 45.332031 30.746094 39.1875 30.746094 31.617188 Z M 15.890625 30.472656 C 15.890625 27.566406 15.890625 25.949219 15.890625 25.617188 C 15.890625 24.988281 16.402344 24.476562 17.03125 24.476562 C 17.664062 24.476562 18.175781 24.988281 18.175781 25.617188 C 18.175781 25.949219 18.175781 27.566406 18.175781 30.472656 C 21.09375 30.472656 22.710938 30.472656 23.03125 30.472656 C 23.660156 30.472656 24.171875 30.984375 24.171875 31.617188 C 24.171875 32.246094 23.660156 32.757812 23.03125 32.757812 C 22.710938 32.757812 21.09375 32.757812 18.175781 32.757812 C 18.175781 35.675781 18.175781 37.292969 18.175781 37.621094 C 18.175781 38.253906 17.664062 38.765625 17.03125 38.765625 C 16.402344 38.765625 15.890625 38.253906 15.890625 37.621094 C 15.890625 37.292969 15.890625 35.675781 15.890625 32.757812 C 12.972656 32.757812 11.355469 32.757812 11.035156 32.757812 C 10.40625 32.757812 9.890625 32.246094 9.890625 31.617188 C 9.890625 30.984375 10.40625 30.472656 11.035156 30.472656 C 11.683594 30.472656 13.304688 30.472656 15.890625 30.472656 Z M 15.890625 30.472656 "/>
    </g>
  </symbol>
  <symbol id="alarm-clock" viewBox="0 0 64 64">
    <g class="alarm-clock" fill="currentColor">
      <path d="M 57.453125 23.980469 C 54.824219 15.691406 48.308594 9.175781 40.007812 6.542969 C 34.835938 4.9375 29.179688 4.933594 23.984375 6.542969 C 15.695312 9.171875 9.179688 15.691406 6.542969 23.988281 C 5.742188 26.578125 5.332031 29.273438 5.332031 32 C 5.332031 46.703125 17.296875 58.667969 32 58.667969 C 46.703125 58.667969 58.667969 46.703125 58.667969 32 C 58.667969 29.273438 58.257812 26.578125 57.453125 23.980469 Z M 34.667969 32 C 34.667969 33.472656 33.472656 34.667969 32 34.667969 L 18.667969 34.667969 C 17.195312 34.667969 16 33.472656 16 32 C 16 30.527344 17.195312 29.332031 18.667969 29.332031 L 29.332031 29.332031 L 29.332031 18.667969 C 29.332031 17.195312 30.527344 16 32 16 C 33.472656 16 34.667969 17.195312 34.667969 18.667969 Z M 34.667969 32 "/>
      <path d="M 40.796875 3.996094 C 49.933594 6.894531 57.105469 14.0625 59.996094 23.175781 C 60.039062 23.316406 60.066406 23.453125 60.105469 23.59375 C 62.558594 21.03125 64 17.625 64 13.972656 C 64 6.269531 57.730469 0 50.027344 0 C 46.375 0 42.96875 1.441406 40.410156 3.894531 C 40.539062 3.929688 40.667969 3.957031 40.796875 3.996094 Z M 40.796875 3.996094 "/>
      <path d="M 3.996094 23.203125 C 6.894531 14.066406 14.0625 6.894531 23.175781 4.003906 C 23.3125 3.960938 23.453125 3.933594 23.59375 3.894531 C 21.03125 1.441406 17.625 0 13.972656 0 C 6.269531 0 0 6.269531 0 13.972656 C 0 17.625 1.441406 21.03125 3.890625 23.589844 C 3.929688 23.460938 3.957031 23.332031 3.996094 23.203125 Z M 3.996094 23.203125 "/>
      <path d="M 49.945312 55.15625 C 48.542969 56.246094 47.046875 57.214844 45.457031 58.039062 L 48.40625 62.75 C 48.910156 63.558594 49.78125 64 50.667969 64 C 51.152344 64 51.644531 63.871094 52.082031 63.59375 C 53.332031 62.8125 53.710938 61.167969 52.929688 59.921875 Z M 49.945312 55.15625 "/>
      <path d="M 14.054688 55.15625 L 11.070312 59.921875 C 10.289062 61.167969 10.667969 62.8125 11.917969 63.59375 C 12.355469 63.871094 12.847656 64 13.332031 64 C 14.21875 64 15.089844 63.558594 15.59375 62.75 L 18.542969 58.039062 C 16.953125 57.210938 15.457031 56.242188 14.054688 55.15625 Z M 14.054688 55.15625 "/>
    </g>
  </symbol>
  <symbol id="DateTime" viewBox="0 0 64 64">
    <g class="DateTime" fill="currentColor">
      <path d="M 14.667969 0 C 13.929688 0 13.332031 0.597656 13.332031 1.332031 L 13.332031 6.667969 C 13.332031 7.402344 13.929688 8 14.667969 8 C 15.402344 8 16 7.402344 16 6.667969 L 16 1.332031 C 16 0.597656 15.402344 0 14.667969 0 Z M 14.667969 0 "/>
      <path d="M 36 0 C 35.265625 0 34.667969 0.597656 34.667969 1.332031 L 34.667969 6.667969 C 34.667969 7.402344 35.265625 8 36 8 C 36.734375 8 37.332031 7.402344 37.332031 6.667969 L 37.332031 1.332031 C 37.332031 0.597656 36.734375 0 36 0 Z M 36 0 "/>
      <path d="M 41.332031 2.667969 L 40 2.667969 L 40 6.667969 C 40 8.871094 38.203125 10.667969 36 10.667969 C 33.792969 10.667969 32 8.871094 32 6.667969 L 32 2.667969 L 18.667969 2.667969 L 18.667969 6.667969 C 18.667969 8.871094 16.871094 10.667969 14.667969 10.667969 C 12.460938 10.667969 10.667969 8.871094 10.667969 6.667969 L 10.667969 2.667969 L 9.332031 2.667969 C 4.1875 2.667969 0 6.855469 0 12 L 0 13.332031 L 50.667969 13.332031 L 50.667969 12 C 50.667969 6.855469 46.480469 2.667969 41.332031 2.667969 Z M 41.332031 2.667969 "/>
      <path d="M 63.464844 34.933594 L 58.132812 30.933594 C 57.546875 30.492188 56.707031 30.609375 56.265625 31.199219 C 55.824219 31.789062 55.945312 32.625 56.53125 33.066406 L 61.867188 37.066406 C 62.105469 37.246094 62.386719 37.332031 62.664062 37.332031 C 63.070312 37.332031 63.472656 37.148438 63.734375 36.800781 C 64.175781 36.210938 64.054688 35.375 63.464844 34.933594 Z M 63.464844 34.933594 "/>
      <path d="M 42.398438 31.199219 C 41.953125 30.609375 41.121094 30.488281 40.53125 30.933594 L 35.199219 34.933594 C 34.609375 35.375 34.492188 36.210938 34.933594 36.800781 C 35.195312 37.148438 35.59375 37.332031 36 37.332031 C 36.28125 37.332031 36.558594 37.246094 36.800781 37.066406 L 42.132812 33.066406 C 42.722656 32.625 42.84375 31.789062 42.398438 31.199219 Z M 42.398438 31.199219 "/>
      <path d="M 34.667969 39.71875 L 34.667969 40.164062 C 34.738281 40.050781 34.792969 39.925781 34.863281 39.8125 C 34.792969 39.792969 34.734375 39.742188 34.667969 39.71875 Z M 34.667969 39.71875 "/>
      <path d="M 0 16 L 0 41.332031 C 0 46.480469 4.1875 50.667969 9.332031 50.667969 L 32.066406 50.667969 C 32.035156 50.222656 32 49.785156 32 49.332031 C 32 47.855469 32.222656 46.4375 32.574219 45.070312 C 32.234375 44.828125 32 44.449219 32 44 L 32 25.886719 L 28.945312 28.941406 C 28.425781 29.460938 27.578125 29.460938 27.058594 28.941406 C 26.539062 28.421875 26.539062 27.574219 27.058594 27.054688 L 32.390625 21.722656 C 32.773438 21.339844 33.347656 21.222656 33.84375 21.433594 C 34.339844 21.640625 34.667969 22.128906 34.667969 22.667969 L 34.667969 32 L 38.933594 28.800781 C 39.625 28.277344 40.457031 27.996094 41.332031 27.996094 C 42.582031 27.996094 43.777344 28.59375 44.53125 29.597656 C 45.15625 30.433594 45.425781 31.457031 45.292969 32.492188 C 46.59375 32.183594 47.941406 32 49.332031 32 C 49.785156 32 50.222656 32.046875 50.667969 32.085938 L 50.667969 16 Z M 24 38.667969 C 24 42.339844 21.007812 45.332031 17.332031 45.332031 C 13.660156 45.332031 10.667969 42.339844 10.667969 38.667969 C 10.667969 37.929688 11.265625 37.332031 12 37.332031 C 12.734375 37.332031 13.332031 37.929688 13.332031 38.667969 C 13.332031 40.871094 15.128906 42.667969 17.332031 42.667969 C 19.539062 42.667969 21.332031 40.871094 21.332031 38.667969 C 21.332031 36.460938 19.539062 34.667969 17.332031 34.667969 L 14.667969 34.667969 C 13.929688 34.667969 13.332031 34.070312 13.332031 33.332031 C 13.332031 32.597656 13.929688 32 14.667969 32 L 17.332031 32 C 19.539062 32 21.332031 30.207031 21.332031 28 C 21.332031 25.792969 19.539062 24 17.332031 24 C 15.128906 24 13.332031 25.792969 13.332031 28 C 13.332031 28.734375 12.734375 29.332031 12 29.332031 C 11.265625 29.332031 10.667969 28.734375 10.667969 28 C 10.667969 24.324219 13.660156 21.332031 17.332031 21.332031 C 21.007812 21.332031 24 24.324219 24 28 C 24 30.179688 22.949219 32.113281 21.332031 33.332031 C 22.949219 34.550781 24 36.488281 24 38.667969 Z M 24 38.667969 "/>
      <path d="M 49.332031 34.667969 C 41.246094 34.667969 34.667969 41.246094 34.667969 49.332031 C 34.667969 57.421875 41.246094 64 49.332031 64 C 57.421875 64 64 57.421875 64 49.332031 C 64 41.246094 57.421875 34.667969 49.332031 34.667969 Z M 55.609375 55.609375 C 55.347656 55.867188 55.007812 56 54.667969 56 C 54.324219 56 53.984375 55.871094 53.722656 55.609375 L 48.390625 50.277344 C 48.140625 50.027344 48 49.6875 48 49.332031 L 48 41.332031 C 48 40.597656 48.597656 40 49.332031 40 C 50.070312 40 50.667969 40.597656 50.667969 41.332031 L 50.667969 48.78125 L 55.609375 53.726562 C 56.128906 54.246094 56.128906 55.085938 55.609375 55.609375 Z M 55.609375 55.609375 "/>
    </g>
  </symbol>
  <symbol id="chronometre" viewBox="0 0 64 64">
    <g class="chronometre" fill="currentColor">
      <path d="M 53.585938 18.183594 L 57.886719 13.886719 C 58.929688 12.84375 58.929688 11.15625 57.886719 10.113281 C 56.84375 9.070312 55.15625 9.070312 54.113281 10.113281 L 49.8125 14.414062 C 45.617188 10.945312 40.386719 8.675781 34.667969 8.136719 L 34.667969 5.332031 L 40 5.332031 C 41.476562 5.332031 42.667969 4.140625 42.667969 2.667969 C 42.667969 1.195312 41.476562 0 40 0 L 24 0 C 22.527344 0 21.332031 1.195312 21.332031 2.667969 C 21.332031 4.140625 22.527344 5.332031 24 5.332031 L 29.332031 5.332031 L 29.332031 8.136719 C 15.140625 9.484375 4 21.460938 4 36 C 4 51.441406 16.558594 64 32 64 C 47.441406 64 60 51.441406 60 36 C 60 29.238281 57.589844 23.03125 53.585938 18.183594 Z M 41.601562 48.800781 C 41.121094 49.160156 40.558594 49.332031 40.003906 49.332031 C 39.191406 49.332031 38.390625 48.964844 37.867188 48.265625 L 29.867188 37.601562 C 29.519531 37.140625 29.332031 36.578125 29.332031 36 L 29.332031 21.332031 C 29.332031 19.859375 30.527344 18.667969 32 18.667969 C 33.472656 18.667969 34.667969 19.859375 34.667969 21.332031 L 34.667969 35.113281 L 42.132812 45.066406 C 43.015625 46.246094 42.777344 47.917969 41.601562 48.800781 Z M 41.601562 48.800781 "/>
    </g>
  </symbol>
  <symbol id="hourglass" viewBox="0 0 64 64">
    <g class="hourglass" fill="currentColor">
      <path style="stroke:none;fill-rule:nonzero;fill:#fff;fill-opacity:1" d="M 49.066406 0 L 14.933594 0 C 13.167969 0 11.734375 1.4375 11.734375 3.199219 C 11.734375 4.964844 13.167969 6.398438 14.933594 6.398438 L 49.066406 6.398438 C 50.832031 6.398438 52.265625 4.964844 52.265625 3.199219 C 52.265625 1.4375 50.832031 0 49.066406 0 Z M 49.066406 4.265625 L 14.933594 4.265625 C 14.34375 4.265625 13.867188 3.789062 13.867188 3.199219 C 13.867188 2.609375 14.34375 2.132812 14.933594 2.132812 L 49.066406 2.132812 C 49.65625 2.132812 50.132812 2.609375 50.132812 3.199219 C 50.132812 3.789062 49.65625 4.265625 49.066406 4.265625 Z M 49.066406 4.265625 "/>
      <path style="stroke:none;fill-rule:nonzero;fill:#fff;fill-opacity:1" d="M 49.066406 57.601562 L 14.933594 57.601562 C 13.167969 57.601562 11.734375 59.035156 11.734375 60.800781 C 11.734375 62.5625 13.167969 64 14.933594 64 L 49.066406 64 C 50.832031 64 52.265625 62.5625 52.265625 60.800781 C 52.265625 59.035156 50.832031 57.601562 49.066406 57.601562 Z M 49.066406 61.867188 L 14.933594 61.867188 C 14.34375 61.867188 13.867188 61.390625 13.867188 60.800781 C 13.867188 60.210938 14.34375 59.734375 14.933594 59.734375 L 49.066406 59.734375 C 49.65625 59.734375 50.132812 60.210938 50.132812 60.800781 C 50.132812 61.390625 49.65625 61.867188 49.066406 61.867188 Z M 49.066406 61.867188 "/>
      <path style="stroke:none;fill-rule:nonzero;fill:#fff;fill-opacity:1" d="M 39.601562 28.039062 C 45.019531 22.625 48 15.421875 48 7.765625 L 48 5.332031 C 48 4.742188 47.523438 4.265625 46.933594 4.265625 L 17.066406 4.265625 C 16.476562 4.265625 16 4.742188 16 5.332031 L 16 7.765625 C 16 15.425781 18.980469 22.625 24.398438 28.039062 L 25.46875 29.113281 C 26.230469 29.871094 26.667969 30.925781 26.667969 32 C 26.667969 33.074219 26.230469 34.128906 25.472656 34.886719 L 24.398438 35.960938 C 18.980469 41.375 16 48.574219 16 56.234375 L 16 58.667969 C 16 59.257812 16.476562 59.734375 17.066406 59.734375 L 46.933594 59.734375 C 47.523438 59.734375 48 59.257812 48 58.667969 L 48 56.234375 C 48 48.578125 45.015625 41.375 39.601562 35.960938 L 38.527344 34.886719 C 37.757812 34.117188 37.332031 33.089844 37.332031 32 C 37.332031 30.910156 37.757812 29.882812 38.527344 29.113281 Z M 37.019531 27.605469 C 35.847656 28.777344 35.199219 30.339844 35.199219 32 C 35.199219 33.660156 35.847656 35.222656 37.019531 36.394531 L 38.09375 37.46875 C 43.105469 42.480469 45.867188 49.148438 45.867188 56.234375 L 45.867188 57.601562 L 18.132812 57.601562 L 18.132812 56.234375 C 18.132812 49.144531 20.894531 42.480469 25.90625 37.46875 L 26.976562 36.394531 C 28.152344 35.222656 28.800781 33.660156 28.800781 32 C 28.800781 30.339844 28.152344 28.777344 26.980469 27.605469 L 25.90625 26.53125 C 20.894531 21.519531 18.132812 14.851562 18.132812 7.765625 L 18.132812 6.398438 L 45.867188 6.398438 L 45.867188 7.765625 C 45.867188 14.851562 43.105469 21.519531 38.09375 26.53125 Z M 37.019531 27.605469 "/>
      <path style="stroke:none;fill-rule:nonzero;fill:#fff;fill-opacity:1" d="M 41.015625 17.96875 C 40.90625 17.699219 40.539062 17.066406 39.464844 17.066406 C 33.925781 17.066406 31.453125 15.878906 30.476562 15.171875 C 29.253906 14.285156 27.6875 14.054688 26.28125 14.554688 C 24.9375 15.027344 23.953125 16.085938 23.582031 17.449219 C 23.488281 17.804688 23.472656 18.035156 23.472656 18.035156 C 23.453125 18.246094 23.5 18.472656 23.605469 18.65625 C 24.605469 20.429688 25.757812 22.296875 27.417969 23.957031 L 28.488281 25.027344 C 30.066406 26.605469 30.933594 28.703125 30.933594 30.933594 C 30.933594 31.523438 31.410156 32 32 32 C 32.589844 32 33.066406 31.523438 33.066406 30.933594 C 33.066406 28.703125 33.933594 26.605469 35.511719 25.027344 L 36.585938 23.957031 C 36.847656 23.695312 37.191406 23.371094 37.570312 23.015625 C 40.328125 20.421875 41.484375 19.160156 41.015625 17.96875 Z M 36.105469 21.460938 C 35.710938 21.832031 35.351562 22.171875 35.074219 22.449219 L 34.003906 23.519531 C 33.171875 24.347656 32.5 25.292969 32 26.3125 C 31.496094 25.292969 30.824219 24.347656 29.996094 23.519531 L 28.925781 22.449219 C 27.613281 21.136719 26.65625 19.695312 25.660156 17.957031 C 25.921875 17.066406 26.605469 16.703125 26.992188 16.5625 C 27.738281 16.300781 28.570312 16.425781 29.222656 16.898438 C 30.582031 17.882812 33.261719 19.042969 38.394531 19.183594 C 37.738281 19.925781 36.703125 20.902344 36.105469 21.460938 Z M 36.105469 21.460938 "/>
      <path style="stroke:none;fill-rule:nonzero;fill:#fff;fill-opacity:1" d="M 43.660156 54.316406 C 43.390625 50.859375 42.003906 49.421875 40.402344 47.757812 C 40.183594 47.535156 39.957031 47.300781 39.726562 47.054688 C 38.386719 45.621094 36.496094 44.800781 34.535156 44.800781 L 29.464844 44.800781 C 27.503906 44.800781 25.613281 45.621094 24.273438 47.054688 C 24.039062 47.300781 23.816406 47.53125 23.597656 47.757812 C 21.992188 49.421875 20.605469 50.859375 20.339844 54.316406 C 20.316406 54.613281 20.417969 54.90625 20.621094 55.125 C 20.824219 55.34375 21.105469 55.464844 21.402344 55.464844 L 42.597656 55.464844 C 42.894531 55.464844 43.175781 55.34375 43.378906 55.125 C 43.582031 54.90625 43.683594 54.613281 43.660156 54.316406 Z M 22.617188 53.332031 C 22.980469 51.472656 23.84375 50.578125 25.136719 49.238281 C 25.359375 49.007812 25.589844 48.765625 25.832031 48.511719 C 26.769531 47.507812 28.09375 46.933594 29.464844 46.933594 L 34.535156 46.933594 C 35.90625 46.933594 37.230469 47.507812 38.167969 48.507812 C 38.410156 48.765625 38.640625 49.007812 38.867188 49.242188 C 40.160156 50.582031 41.019531 51.472656 41.382812 53.332031 Z M 22.617188 53.332031 "/>
      <path style="stroke:none;fill-rule:nonzero;fill:#fff;fill-opacity:1" d="M 31.96875 34.132812 C 31.378906 34.132812 30.902344 34.609375 30.902344 35.199219 L 30.902344 36.265625 C 30.902344 36.855469 31.378906 37.332031 31.96875 37.332031 C 32.558594 37.332031 33.035156 36.855469 33.035156 36.265625 L 33.035156 35.199219 C 33.035156 34.609375 32.558594 34.132812 31.96875 34.132812 Z M 31.96875 34.132812 "/>
      <path style="stroke:none;fill-rule:nonzero;fill:#fff;fill-opacity:1" d="M 31.96875 39.464844 C 31.378906 39.464844 30.902344 39.945312 30.902344 40.535156 L 30.902344 41.601562 C 30.902344 42.191406 31.378906 42.667969 31.96875 42.667969 C 32.558594 42.667969 33.035156 42.191406 33.035156 41.601562 L 33.035156 40.535156 C 33.035156 39.945312 32.558594 39.464844 31.96875 39.464844 Z M 31.96875 39.464844 "/>
    </g>
  </symbol>
</svg>
